<?xml version="1.0" encoding="UTF-8"?>
<!DOCTYPE svg PUBLIC "-//W3C//DTD SVG 1.1//EN" "http://www.w3.org/Graphics/SVG/1.1/DTD/svg11.dtd">
<!-- Creator: CorelDRAW -->
<svg xmlns="http://www.w3.org/2000/svg" xml:space="preserve" width="139.777mm" height="110.837mm" version="1.1" style="shape-rendering:geometricPrecision; text-rendering:geometricPrecision; image-rendering:optimizeQuality; fill-rule:evenodd; clip-rule:evenodd"
viewBox="0 0 4956.25 3930.1"
 xmlns:xlink="http://www.w3.org/1999/xlink"
 xmlns:xodm="http://www.corel.com/coreldraw/odm/2003">
 <defs>
  <style type="text/css">
   <![CDATA[
    .fil2 {fill:white}
    .fil1 {fill:white;fill-rule:nonzero}
    .fil0 {fill:white;fill-rule:nonzero}
   ]]>
  </style>
 </defs>
 <g id="Layer_x0020_1">
  <metadata id="CorelCorpID_0Corel-Layer"/>
  <g id="_105554125950656">
   <path class="fil0" d="M2477.98 1070.86l-1355.59 7.97 60.61 42.48c433.24,-2.34 864.2,-3.52 1295.13,-3.51 428.17,-0.02 859.12,1.16 1295.12,3.51l60.62 -42.48 -1355.91 -7.97zm2475.81 633.09l0 43.97 -597.93 -478.35 -173.88 49.68 -294.8 -235.83 -79.5 55.73 306.79 245.45 173.88 -49.68c222.12,177.01 443.77,354.77 665.43,532.35l0 42.03 -3.37 -2.7 -669.2 -535.35 -173.89 49.68 -333.39 -266.73 -1295.8 -8.25 -1295.8 8.25 -333.39 266.73 -173.89 -49.68 -672.57 538.04 0 -42.03c221.66,-177.58 443.31,-355.34 665.43,-532.33l173.88 49.68 306.79 -245.45 -79.5 -55.73 -294.91 235.94 -173.88 -49.68 -597.82 478.25 0 -43.97c186.12,-149.34 404.14,-324.52 590.36,-472.25l173.87 49.68 295.68 -236.55c27.52,-0.18 55.03,-0.35 82.54,-0.54 244.17,-19.03 465.99,-33.5 676.2,-43.39 229.67,-10.81 445.5,-16.2 661.37,-16.17 215.88,0.04 431.7,5.49 661.37,16.32 210.5,9.94 432.68,24.41 677.26,43.35 24.35,0.14 48.78,0.3 72.74,0.42l295.54 236.45 173.89 -49.68c186.22,147.73 404.35,323 590.47,472.35z"/>
   <polygon class="fil0" points="682.57,2938.32 682.57,2938.32 660.41,2938.32 660.41,2938.32 654.23,2938.32 654.23,1346.88 688.74,1346.88 688.74,1353.07 688.74,2938.32 "/>
   <polygon class="fil0" points="856.48,2910.77 856.48,2910.77 834.26,2910.77 834.26,2910.77 828.05,2910.77 828.05,1396.55 862.66,1396.55 862.66,1402.73 862.66,2910.77 "/>
   <path class="fil0" d="M1193.82 1137.78l0 1834.09 -34.49 0 0 -1840.28 34.49 0 0 6.19zm-12.38 1798.71l-9.73 0 0 22.99 9.73 0 0 -22.99z"/>
   <polygon class="fil0" points="4302.06,2939.12 4267.52,2939.12 4267.52,1354.49 4302.06,1354.49 "/>
   <path class="fil0" d="M4093.61 2917.54l0 -1520.99 34.59 0 0 6.18 0 1514.81c-11.53,0 -23.05,0 -34.59,0z"/>
   <path class="fil0" d="M3796.95 2974.12l-34.5 0 0 -1842.52 34.5 0 0 1842.52zm-12.36 -37.62l-9.74 0 0 25.22 9.74 0 0 -25.22z"/>
   <path class="fil0" d="M1949.8 1438.77l101.9 0 0 300.77 -108.98 0 0 -300.77 7.08 0zm87.74 14.15l-80.67 0 0 272.46 80.67 0 0 -272.46z"/>
   <path class="fil0" d="M2044.62 1438.77l101.9 0 0 300.77 -108.97 0 0 -300.77 7.08 0zm87.74 14.15l-80.67 0 0 272.46 80.67 0 0 -272.46z"/>
   <path class="fil0" d="M1658.16 1438.77l101.9 0 0 300.77 -108.97 0 0 -300.77 7.08 0zm87.74 14.15l-80.66 0 0 272.46 80.66 0 0 -272.46z"/>
   <path class="fil0" d="M1752.99 1438.77l101.9 0 0 300.77 -108.98 0 0 -300.77 7.08 0zm87.74 14.15l-80.66 0 0 272.46 80.66 0 0 -272.46z"/>
   <path class="fil0" d="M1658.16 1826.22l101.9 0 0 286.63 -108.99 0 0 -286.63 7.08 0zm87.74 14.17l-80.65 0 0 258.3 80.65 0 0 -258.3z"/>
   <path class="fil0" d="M1752.99 1826.22l101.9 0 0 286.63 -108.99 0 0 -286.63 7.09 0zm87.73 14.17l-80.65 0 0 258.3 80.65 0 0 -258.3z"/>
   <path class="fil0" d="M1658.16 2199.52l101.92 0 0 327.12 -109.01 0 0 -327.12 7.1 0zm87.72 14.2l-80.62 0 0 298.73 80.62 0 0 -298.73z"/>
   <path class="fil0" d="M1752.99 2199.52l101.92 0 0 327.12 -109.02 0 0 -327.12 7.1 0zm87.72 14.2l-80.62 0 0 298.73 80.62 0 0 -298.73z"/>
   <path class="fil0" d="M2139.44 1438.77l101.9 0 0 300.77 -108.98 0 0 -300.77 7.08 0zm87.74 14.15l-80.66 0 0 272.46 80.66 0 0 -272.46z"/>
   <path class="fil0" d="M2335.85 1438.77l101.9 0 0 300.77 -108.98 0 0 -300.77 7.08 0zm87.74 14.15l-80.67 0 0 272.46 80.67 0 0 -272.46z"/>
   <path class="fil0" d="M2430.67 1438.77l101.9 0 0 300.77 -108.97 0 0 -300.77 7.07 0zm87.74 14.15l-80.66 0 0 272.46 80.66 0 0 -272.46z"/>
   <path class="fil0" d="M2525.5 1438.77l101.9 0 0 300.77 -108.97 0 0 -300.77 7.08 0zm87.74 14.15l-80.66 0 0 272.46 80.66 0 0 -272.46z"/>
   <path class="fil0" d="M1949.8 1826.22l101.91 0 0 286.63 -108.99 0 0 -286.63 7.08 0zm87.74 14.17l-80.65 0 0 258.3 80.65 0 0 -258.3z"/>
   <path class="fil0" d="M2109.35 2112.84l-71.8 0c-0.02,-122.78 0,-163.84 0,-286.62l108.97 0 0 206.43 -14.15 0 0 -192.28 -80.67 0 0 258.31 57.64 0 0 14.15z"/>
   <path class="fil0" d="M2139.45 1826.22l101.9 0 0 220.59 -108.97 0 0 -220.59 7.07 0zm87.74 14.15l-80.67 0 0 192.28 80.67 0 0 -192.28z"/>
   <path class="fil0" d="M2335.85 1826.22l101.9 0 0 220.59 -108.97 0 0 -220.59 7.08 0zm87.74 14.16l-80.67 0 0 192.28 80.67 0 0 -192.28z"/>
   <path class="fil0" d="M2430.67 1826.22l101.9 0 0 220.59 -108.97 0 0 -220.59 7.07 0zm87.74 14.16l-80.67 0 0 192.28 80.67 0 0 -192.28z"/>
   <path class="fil0" d="M2525.5 1826.22l101.9 0 0 220.59 -108.97 0 0 -220.59 7.08 0zm87.74 14.16l-80.67 0 0 192.28 80.67 0 0 -192.28z"/>
   <path class="fil0" d="M1949.8 2199.52l101.92 0 0 327.12 -109.01 0 0 -327.12 7.1 0zm87.72 14.2l-80.62 0 0 298.73 80.62 0 0 -298.73z"/>
   <path class="fil0" d="M2044.62 2199.52l101.92 0 0 327.12 -109.02 0 0 -327.12 7.1 0zm87.72 14.2l-80.63 0 0 298.73 80.63 0 0 -298.73z"/>
   <path class="fil0" d="M2999.28 1452.92l-80.66 0 0 272.46 80.66 0 0 -272.46zm-87.74 -14.15l101.9 0 0 300.77 -108.98 0 0 -300.77 7.08 0z"/>
   <path class="fil0" d="M2904.45 1452.92l-80.66 0 0 272.46 80.66 0 0 -272.46zm-87.74 -14.15l101.9 0 0 300.77 -108.98 0 0 -300.77 7.07 0z"/>
   <path class="fil0" d="M3290.93 1452.92l-80.66 0 0 272.46 80.66 0 0 -272.46zm-87.74 -14.15l101.9 0 0 300.77 -108.98 0 0 -300.77 7.08 0z"/>
   <path class="fil0" d="M3196.11 1452.92l-80.66 0 0 272.46 80.66 0 0 -272.46zm-87.74 -14.15l101.9 0 0 300.77 -108.98 0 0 -300.77 7.08 0z"/>
   <path class="fil0" d="M3290.92 1840.39l-80.65 0 0 258.3 80.65 0 0 -258.3zm-87.73 -14.17l101.9 0 0 286.63 -108.99 0 0 -286.63 7.09 0z"/>
   <path class="fil0" d="M3196.1 1840.39l-80.65 0 0 258.3 80.65 0 0 -258.3zm-87.73 -14.17l101.9 0 0 286.63 -108.99 0 0 -286.63 7.09 0z"/>
   <path class="fil0" d="M3290.91 2213.72l-80.62 0 0 298.73 80.62 0 0 -298.73zm-87.72 -14.2l101.92 0 0 327.12 -109.02 0 0 -327.12 7.1 0z"/>
   <path class="fil0" d="M3196.09 2213.72l-80.62 0 0 298.73 80.62 0 0 -298.73zm-87.72 -14.2l101.92 0 0 327.13 -109.02 0 0 -327.13 7.1 0z"/>
   <path class="fil0" d="M2809.63 1452.92l-80.66 0 0 272.46 80.66 0 0 -272.46zm-87.74 -14.15l101.9 0 0 300.77 -108.98 0 0 -300.77 7.08 0z"/>
   <path class="fil0" d="M2999.27 1840.39l-80.65 0 0 258.3 80.65 0 0 -258.3zm-87.73 -14.17l101.9 0 0 286.63 -108.99 0 0 -286.63 7.09 0z"/>
   <path class="fil0" d="M2809.63 1840.38l-80.67 0 0 192.28 80.67 0 0 -192.28zm-87.74 -14.15l101.9 0 0 220.59 -108.97 0 0 -220.59 7.08 0z"/>
   <path class="fil0" d="M2999.26 2213.72l-80.62 0 0 298.73 80.62 0 0 -298.73zm-87.72 -14.2l101.92 0 0 327.12 -109.02 0 0 -327.12 7.1 0z"/>
   <path class="fil0" d="M2904.44 2213.72l-80.62 0 0 298.73 80.62 0 0 -298.73zm-87.72 -14.2l101.92 0 0 327.12 -109.02 0 0 -327.12 7.1 0z"/>
   <path class="fil0" d="M2780.21 2554.33l594.17 0 0 -1179.15c-170.86,17.21 -532.28,44.82 -896.06,44.82 -363.94,0 -725.6,-27.62 -896.52,-44.82l0 1179.15 590.89 0 0 21.24 -612.12 0 0 -1223.95 11.74 1.27c164.53,17.9 533.95,45.88 906.01,45.88 371.92,0 741.08,-27.96 905.55,-45.88l11.74 -1.28 0 1223.96 -615.4 0 0 -21.24z"/>
   <polygon class="fil0" points="1653.85,1451.43 1564.38,1382.41 1573.01,1371.24 1662.47,1440.26 "/>
   <polygon class="fil0" points="3293.69,1440.26 3383.16,1371.24 3391.79,1382.41 3302.32,1451.43 "/>
   <polygon class="fil0" points="1661.62,2525.71 1572.15,2575.96 1565.24,2563.63 1654.71,2513.39 "/>
   <polygon class="fil0" points="3301.46,2513.39 3390.93,2563.63 3384.23,2575.57 3294.55,2525.72 "/>
   <path class="fil0" d="M2837.37 2187.58l-728.02 0 0 -105.42 736.28 0 0 105.42 -8.26 0zm-359.28 -16.53l351.02 0 0 -72.36 -703.23 0 0 72.36 352.21 0z"/>
   <path class="fil0" d="M2830.29 2067.54l-704.41 0 0 14.61 704.41 0 0 -14.61zm-352.2 -16.52l368.73 0 0 47.67 -737.47 0 0 -47.67 368.74 0z"/>
   <polygon class="fil0" points="2091.94,2067.57 2091.94,2031.43 2864.22,2031.43 2864.22,2067.57 "/>
   <path class="fil1" d="M3417.68 1324.74c-622.31,61.4 -1259.71,61.42 -1882.02,0 -0.67,433.14 -1.56,866.3 -1.56,1299.43 0,1.2 0,0.6 0,1.79l-1.28 0 0 1.79c-10.41,0 -20.82,0 -31.23,0 0,-445.9 0,-891.79 0,-1337.69l2.96 0.32 0 -0.32c5.71,0.61 11.43,1.23 17.14,1.83 616.53,66.61 1293.45,66.6 1909.97,0 5.71,-0.61 11.43,-1.23 17.14,-1.83l0 0.32 2.96 -0.32c0,445.9 0,891.79 0,1337.69 -10.41,0 -20.81,0 -31.23,0l0 -1.79 -1.28 0c0,-1.2 0,-0.59 0,-1.79 0,-433.14 -0.9,-866.3 -1.56,-1299.43z"/>
   <path class="fil0" d="M3144.24 2624.18l647.77 0 0 331.43 3.14 -0.02 310.56 -69.18 174.47 32.45 671.11 -105.12 4.96 32.15 -676.66 105.96 -173.35 -32.23c-311.09,69.18 -0.52,0 -311.09,69.18l-330.64 0.43 0 24.26 330.64 -1.03 310.56 -69.2 174.47 32.47 671.11 -105.12 4.96 32.14 -676.66 105.96 -173.35 -32.24c-311.09,69.2 -0.52,0 -311.09,69.2l-297.98 0.39 0 47.62 -2039.7 0 0 -47.62 -296.37 -0.39c-310.57,-69.2 0,0 -311.09,-69.2l-173.35 32.24 -676.65 -105.96 4.96 -32.14 671.1 105.12 174.47 -32.47 310.57 69.2 329.04 1.03 0 -24.26 -329.04 -0.43c-310.57,-69.18 0,0 -311.09,-69.18l-173.35 32.23 -676.65 -105.96 4.96 -32.15 671.1 105.12 174.47 -32.45 310.57 69.18 3.18 -331.41 12.17 0c634.74,0 1333.02,0 1967.78,0zm618.21 331.5l0 -6.9 5.19 0 0 -300.01 -623.37 0 0 141.15 167.78 80.23 136.12 2.72 0 83.8 314.28 -0.99zm-2233.9 72.69l312.72 0 0 -92.08 12.07 0 1290.91 0 0 92.08 281.8 0c0,-29.66 0,-59.31 0,-88.97l-118.86 -0.17c-62.02,-30.45 -124.06,-58.22 -186.07,-88.7 0,-49.41 0,-98.82 0,-148.23l-1256.72 0c0,49.41 0,98.82 0,148.23 -61.05,30 -122.09,58.72 -183.16,88.7l-152.69 0c0,29.71 0,59.43 0,89.14zm336.85 0l1254.71 0 0 -67.49 -1254.71 0 0 67.49zm-358.94 -71.69c0,-27.93 0,-55.87 0,-83.8l167 -1.28 167.81 -81.67 -0.56 -141.15 -652.07 0 0 300.01 5.17 0 0 6.9 312.65 0.99zm1614.67 -307.9l-1256.72 0 0 28.95 1256.72 0 0 -28.95zm-1592.58 268.43l147.72 -0.06 164.98 -80.27 0 -22.4 -162.86 79.23 -149.84 1.28 0 22.22zm1615.71 -102.74l0 22.4 167.74 80.19 114.06 0.29 0 -22.37 -118.93 -2.73 -162.87 -77.79z"/>
   <polygon class="fil0" points="2471.01,2632.67 2471.01,2268.81 2485.16,2268.81 2485.16,2632.67 "/>
   <polygon class="fil0" points="2291.37,2261.73 2664.8,2261.73 2664.8,2275.88 2291.37,2275.88 "/>
   <polygon class="fil0" points="2845.63,2098.69 2904.45,2098.69 2904.45,1840.38 2823.78,1840.38 2823.78,2031.43 2809.63,2031.43 2809.63,1826.22 2918.61,1826.22 2918.61,2112.84 2845.63,2112.84 "/>
   <path class="fil0" d="M2183.85 2579.93l105.73 0 0 -360.54 -105.73 0 0 360.54zm112.83 16.53l-129.4 0 0 -393.59 138.88 0 0 393.59 -9.48 0z"/>
   <polygon class="fil0" points="2307.94,2219.39 2156.03,2219.39 2156.03,2182.97 2317.41,2182.97 2317.41,2219.39 "/>
   <polygon class="fil0" points="2153.07,2596.46 2328.65,2596.46 2328.65,2635.85 2144.79,2635.85 2144.79,2596.46 "/>
   <path class="fil0" d="M2202.45 2230.54l76.84 0 0 338.48 -85.13 0 0 -338.48 8.29 0zm62.64 14.15l-56.73 0 0 310.17 56.73 0 0 -310.17z"/>
   <path class="fil0" d="M2202.45 2229.35l78.03 0 0 340.85 -87.5 0 0 -340.85 9.48 0zm75.65 2.37l-82.76 0 0 336.11 82.76 0 0 -336.11zm-14.2 14.15l-54.35 0 0 307.8 54.35 0 0 -307.8zm-55.54 -2.37l57.91 0 0 312.54 -59.1 0 0 -312.54 1.19 0z"/>
   <path class="fil0" d="M2753.73 2230.54l-76.84 0 0 338.48 85.13 0 0 -338.48 -8.29 0zm-62.64 14.15l56.73 0 0 310.17 -56.73 0 0 -310.17z"/>
   <path class="fil0" d="M2753.73 2231.73l-75.65 0 0 336.11 82.76 0 0 -336.11 -7.1 0zm-76.84 -2.37l86.32 0 0 340.85 -87.5 0 0 -340.85 1.19 0zm14.19 14.15l57.93 0 0 312.54 -59.11 0 0 -312.54 1.18 0zm55.56 2.37l-54.37 0 0 307.8 54.37 0 0 -307.8z"/>
   <path class="fil2" d="M2578.41 168.08l-88.69 89.21c17.26,15.71 120.71,120.54 121.2,122.24 -2.39,4.02 -11.9,13.83 -17.33,17.75l-2.19 2.27c-37.8,-18.26 -103.38,-106.92 -122.7,-122 -19.32,15.09 -84.89,103.75 -122.69,122l-2.19 -2.27c-5.43,-3.92 -14.94,-13.73 -17.33,-17.75 0.49,-1.7 103.94,-106.53 121.2,-122.24l-88.69 -89.21c-3.27,3.01 -4.37,1.75 -6.94,2.25 -8.23,1.68 -59.19,71.55 -78.2,85.84 -0.01,-0.43 -0.01,-0.85 -0.01,-1.28 -0.08,-33.55 31.22,-82.49 53.76,-108.2 6.35,-7.24 48,-49.51 53.37,-52.43 2.04,0.16 21.28,19.03 21.28,23.38l-18.21 18.25c-1.56,2.82 -0.72,2.11 -1.48,4.97l-1.49 4.66c-0.18,0.36 -1.55,1.93 -2.13,2.63 15.07,12.14 70.79,75.11 89.76,88.26 18.97,-13.15 74.69,-76.12 89.76,-88.26 -0.59,-0.71 -1.95,-2.27 -2.13,-2.63l-1.49 -4.66c-0.76,-2.86 0.08,-2.16 -1.48,-4.97l-18.21 -18.25c0,-4.36 19.24,-23.22 21.27,-23.38 5.36,2.92 47.02,45.19 53.37,52.43 22.53,25.71 53.84,74.66 53.76,108.2 0,0.43 0,0.85 -0,1.28 -19.01,-14.29 -69.96,-84.16 -78.2,-85.84 -3.39,-0.66 -3.59,0.83 -6.94,-2.25z"/>
   <path class="fil2" d="M2468.7 870.43c-142.71,-60.14 -368.13,66.61 -576.32,45.76 -3.7,-0.35 -7.39,-0.62 -11.08,-1.06l-11.08 -1.49c-7.36,-1.04 -14.74,-2.07 -22.13,-3.1 -7.37,-0.93 -14.71,-2.38 -22.06,-3.69 -7.31,-1.28 -14.65,-2.6 -21.99,-3.89 -14.64,-2.73 -29.22,-5.95 -43.85,-8.58 -14.57,-3.14 -29.17,-6.08 -43.85,-8.71 -7.32,-1.55 -14.65,-2.97 -22.03,-4.27 -7.37,-1.39 -14.86,-2.34 -22.25,-3.77 -7.42,-1.31 -14.92,-2.5 -22.47,-3.51 -3.8,-0.49 -7.6,-0.96 -11.41,-1.45 -3.81,-0.51 -7.62,-1.03 -11.43,-1.54 -15.32,-2 -31.11,-3 -47.15,-4.3 -8.05,-0.51 -16.24,-0.85 -24.61,-1.01 -8.32,-0.26 -53.83,-0.56 -62.47,-0.51 64.97,-76.7 214.28,-68.8 283.73,-49.57 -69.55,-130.09 41.68,-236.6 162.83,-199.82 60.42,20.41 105.96,131.38 5.08,166.83 25.21,-39.9 -9.64,-83.83 -44.96,-83.27 -81.7,1.29 -89.59,113.34 10.82,146.13 194.29,63.46 335.44,-201.84 558.69,-4.59 223.25,-197.25 364.4,68.04 558.69,4.59 100.41,-32.79 92.52,-144.84 10.83,-146.13 -35.32,-0.56 -70.18,43.38 -44.96,83.27 -100.87,-35.45 -55.33,-146.42 5.09,-166.83 121.14,-36.78 232.38,69.73 162.83,199.82 69.46,-19.24 218.76,-27.14 283.74,49.57 -8.64,-0.05 -54.15,0.26 -62.47,0.51 -8.37,0.16 -16.56,0.5 -24.61,1.01 -16.04,1.29 -31.83,2.3 -47.15,4.3 -3.82,0.51 -7.62,1.03 -11.43,1.54 -3.81,0.49 -7.61,0.95 -11.41,1.45 -7.55,1.01 -15.05,2.2 -22.47,3.51 -7.39,1.43 -14.88,2.38 -22.25,3.77 -7.38,1.3 -14.72,2.72 -22.03,4.27 -14.68,2.63 -29.28,5.57 -43.85,8.71 -14.64,2.63 -29.21,5.84 -43.85,8.58 -7.34,1.29 -14.68,2.61 -21.99,3.89 -7.35,1.31 -14.69,2.76 -22.06,3.69 -7.39,1.03 -14.76,2.06 -22.12,3.1l-11.09 1.49c-3.69,0.44 -7.38,0.71 -11.08,1.06 -208.18,20.85 -433.61,-105.91 -576.32,-45.76z"/>
   <path class="fil0" d="M2365.9 577.98l-45.83 0 0 -7.14 3.48 0c3.12,0 5.38,-0.35 6.75,-1.09 1.35,-0.71 2.18,-1.73 2.51,-3.05 0.33,-1.32 0.48,-3.4 0.48,-6.27l0 -57.92c0,-2.92 -0.25,-5.08 -0.79,-6.48 -0.51,-1.37 -1.6,-2.34 -3.25,-2.9 -1.68,-0.53 -4.35,-0.81 -8,-0.81l-2.62 0 0 -6.86c8.43,-1.15 14.35,-2.21 17.78,-3.2 3.43,-0.99 6.55,-2.46 9.37,-4.45l7.01 0 0 83.73c0,3.45 0.59,5.87 1.78,7.24 1.19,1.37 3.56,2.06 7.06,2.06l4.24 0 0 7.14zm170.56 0l-45.93 0 0 -7.14 2.62 0c3.66,0 6.33,-0.3 7.95,-0.89 1.65,-0.61 2.67,-1.55 3.05,-2.87 0.4,-1.32 0.61,-3.53 0.61,-6.66l0 -12.31 -37.66 0 0 -9.06 45.69 -61.24 10.06 0 0 62.28 13.61 0 0 8.02 -13.61 0 0 12.31c0,3.22 0.25,5.54 0.73,6.96 0.51,1.4 1.5,2.34 3.02,2.77 1.5,0.46 3.96,0.69 7.39,0.69l2.46 0 0 7.14zm-31.7 -37.88l0 -39.13 -29.19 39.13 29.19 0z"/>
   <path class="fil0" d="M2452.55 521.57c0,8 -0.96,15.61 -2.93,22.83 -1.94,7.22 -4.81,13.61 -8.59,19.15 -3.8,5.54 -8.49,9.86 -14.08,12.99 -5.57,3.13 -11.91,4.71 -18.97,4.71 -6.73,0 -11.7,-1.24 -14.91,-3.68 -3.21,-2.46 -4.82,-5.18 -4.82,-8.15 0,-1.79 0.65,-3.39 1.94,-4.82 1.27,-1.45 2.97,-2.17 5.1,-2.17 1.79,0 3.21,0.46 4.32,1.37 1.11,0.9 2.51,2.48 4.17,4.71 2.69,3.57 5.85,5.38 9.5,5.38 4.53,0 8.1,-2.07 10.64,-6.24 2.56,-4.14 4.3,-8.67 5.23,-13.59 0.96,-4.94 1.66,-10.2 2.17,-15.74 -2.97,1.76 -5.38,3.03 -7.19,3.78 -2.95,1.22 -5.98,1.81 -9.11,1.81 -3.99,0 -8.25,-1.09 -12.79,-3.29 -4.5,-2.2 -8.33,-5.69 -11.44,-10.51 -3.11,-4.79 -4.66,-10.87 -4.66,-18.2 0,-7.38 1.6,-13.74 4.84,-19.08 3.23,-5.33 7.35,-9.34 12.32,-12.01 4.99,-2.69 10.09,-4.01 15.3,-4.01 3.47,0 7.17,0.72 11.02,2.22 3.86,1.5 7.53,3.91 11.03,7.28 3.5,3.36 6.34,8 8.57,13.92 2.23,5.9 3.34,13.02 3.34,21.3zm-19.57 -11.6c0,-7.43 -0.9,-13.59 -2.77,-18.46 -1.84,-4.89 -5.56,-7.32 -11.18,-7.32 -3.88,0 -6.75,1.24 -8.64,3.75 -1.87,2.51 -3,5.64 -3.44,9.45 -0.44,3.78 -0.65,9.01 -0.65,15.68 0,3.88 0.23,7.48 0.73,10.74 0.46,3.26 1.66,6.21 3.57,8.85 1.89,2.67 4.76,3.99 8.6,3.99 5.72,0 9.45,-2.67 11.18,-8 1.76,-5.33 2.61,-11.57 2.61,-18.69z"/>
   <path class="fil0" d="M2619.38 529.98c0,7.3 -0.44,13.41 -1.32,18.4 -0.88,4.97 -2.17,9.19 -3.88,12.66 -1.68,3.47 -3.75,6.55 -6.16,9.29 -6.47,7.27 -14.13,10.92 -22.98,10.92 -3.78,0 -7.69,-0.8 -11.68,-2.44 -3.99,-1.6 -7.71,-4.29 -11.16,-8.07 -3.44,-3.76 -6.21,-8.9 -8.33,-15.4 -2.12,-6.5 -3.18,-14.34 -3.18,-23.53 0,-8.31 0.46,-15.24 1.4,-20.84 0.93,-5.57 2.05,-9.76 3.29,-12.53 1.27,-2.79 2.88,-5.57 4.79,-8.36 6.32,-8.83 14.62,-13.25 24.87,-13.25 10.51,0 18.82,4.43 24.87,13.25 2.77,3.8 5.05,8.59 6.83,14.42 1.76,5.82 2.64,14.31 2.64,25.47zm-20.4 -0.91l0 -10.02c0,-7.48 -0.28,-13.59 -0.88,-18.35 -0.57,-4.74 -1.89,-8.67 -3.93,-11.83 -2.05,-3.13 -5.1,-4.68 -9.14,-4.68 -4.3,0 -7.45,1.68 -9.45,5.07 -1.99,3.39 -3.23,8.1 -3.75,14.11 -0.49,6 -0.75,14.6 -0.75,25.7 0,10.77 0.26,19.18 0.75,25.21 0.52,6.06 1.76,10.82 3.75,14.34 2,3.52 5.15,5.28 9.45,5.28 3.18,0 5.77,-1.03 7.74,-3.08 1.96,-2.05 3.39,-4.84 4.24,-8.39 0.85,-3.52 1.4,-7.27 1.63,-11.21 0.23,-3.96 0.34,-9.37 0.34,-16.23l0 -5.93z"/>
   <path class="fil2" d="M2468.7 816.4c-66.32,-84.36 -101.42,-91.37 -221.66,-157.37 -32.5,-19.57 -67.25,-47.96 -98.02,-84.14 -30.83,-36.1 -56.76,-80.57 -73.53,-128.36 -16.92,-47.76 -24.27,-98.66 -22.91,-146.09 0.51,-23.74 3.45,-46.59 7.69,-67.92 7.97,-41.48 30.85,-101.95 51,-142.12 10.94,-21.8 20.77,-37.59 21.96,-40.55 1.06,-2.63 -4.72,4.87 -22.61,27.31 -19.23,24.1 -36.84,62.93 -47.1,91.63 -6.58,18.49 -12.53,38.97 -16.77,61.05 -4.38,22.04 -7.41,45.66 -7.95,70.2 -1.41,49.04 6.19,101.68 23.69,151.06 17.33,49.41 44.13,95.36 76,132.68 31.81,37.4 67.74,66.74 101.35,86.99 77.45,47.7 149.5,67.54 228.87,145.62z"/>
   <path class="fil2" d="M2087.06 551.63c8.08,3.36 14.98,5.25 20.53,6.37 4.84,0.89 8.61,1.26 11.34,1.39l-0.76 -0.94c-1.2,-1.38 -2.45,-2.93 -3.89,-4.71 -2.05,-2.53 -4.47,-5.53 -7.24,-8.69l-0.02 -0.02c-5.43,-6.24 -12.01,-13.65 -19.56,-21.91 -6.29,-6.89 -13.61,-14.74 -21.98,-23.53 -8.6,-8.97 -18.5,-17.07 -28.45,-24.21 -10.07,-7.22 -20.1,-13.4 -28.93,-18.52 -8.12,-4.54 -15.22,-8.02 -20.4,-10.08 0.9,1.97 1.96,4.16 3.18,6.48l0.04 0.04c1.23,2.42 2.31,4.51 3.18,6.14 1.01,1.9 2.15,3.99 3.41,6.27 1.41,2.38 2.85,4.71 4.3,7.01 1.3,2.07 2.95,4.6 4.81,7.45 7.04,10.6 15.75,21.75 25.41,32.01 8.6,9.14 17.92,17.55 27.42,24.19 10.16,7.01 19.44,11.87 27.6,15.26z"/>
   <path class="fil2" d="M2018.52 411.73c3.47,4.32 6.77,8.16 9.95,11.55 3.15,3.35 6.18,6.26 9.17,8.76 3.02,2.53 5.85,4.68 8.46,6.52 2.59,1.82 4.95,3.31 7.08,4.55 2.84,1.59 5.26,2.76 7.23,3.6 -0.64,-1.69 -1.42,-3.73 -2.35,-6.04 -0.94,-2.33 -2.09,-5.05 -3.49,-8.16 -1.1,-2.32 -2.24,-4.95 -3.46,-7.75 -1.89,-4.34 -3.97,-9.12 -6.56,-14.22l-0.12 -0.28c-2.06,-4.73 -4.86,-10.37 -7.85,-16.36 -1.91,-3.83 -3.89,-7.8 -5.83,-11.88 -4.71,-9.1 -10.29,-17.76 -16.15,-25.74 -7.07,-9.6 -14.54,-18.16 -21.42,-25.24l-0.06 -0.06c-4.81,-5.11 -9.26,-9.3 -12.85,-12.26 0.23,1.41 0.5,3.01 0.8,4.79 0.64,3.39 1.55,7.36 2.67,11.76 1.19,4.7 2.58,9.72 4.12,14.9 3.42,10.8 8.07,22.5 13.67,33.73 5,10.03 10.74,19.64 16.99,27.84z"/>
   <path class="fil2" d="M2003.35 271.39c2.17,10.4 5.11,20.64 8.73,29.69 1.96,4.57 3.91,8.65 5.82,12.28 2.08,3.97 4.14,7.46 6.13,10.51 1.98,2.87 3.95,5.46 5.86,7.8 1.91,2.33 3.62,4.24 5.16,5.82l0.02 0.04c1.53,1.6 2.93,2.92 4.16,3.99 -0.16,-1.4 -0.35,-3.03 -0.6,-4.88 -0.31,-2.29 -0.72,-5.02 -1.28,-8.25l0 -0.06c-0.55,-3.39 -0.63,-3.97 -0.74,-4.71 -0.8,-5.27 -1.72,-11.25 -3.05,-17.54l-0.06 -0.3c-0.8,-5.46 -1.99,-11.17 -3.24,-17.25 -0.79,-3.81 -1.6,-7.76 -2.3,-11.47 -0.5,-2.45 -1.1,-4.93 -1.79,-7.44 -0.67,-2.43 -1.44,-4.9 -2.3,-7.41l-0.06 -0.18c-0.78,-2.59 -1.56,-4.98 -2.36,-7.19 -0.78,-2.18 -1.69,-4.49 -2.7,-6.91 -2.12,-4.92 -4.13,-9.42 -6,-13.32 -1.95,-4.08 -3.94,-7.94 -5.98,-11.51 -2.8,-4.9 -5.41,-9.08 -7.66,-12.3 -0.12,1.97 -0.21,4.21 -0.28,6.68 -0.17,6.09 -0.12,13.5 0.34,21.66l0 0.06c0.45,10.04 1.88,21.17 4.18,32.2z"/>
   <path class="fil2" d="M2035.48 142.9c-1.81,9.01 -3.16,19.34 -3.49,30.04 -0.28,9.08 0.17,18.43 1.68,27.46 0.82,4.9 1.75,9.33 2.76,13.31 1.01,4 2.07,7.46 3.15,10.45l0.02 0.06c1.04,2.99 2.08,5.67 3.12,8.08 0.9,2.11 1.74,3.88 2.53,5.37 0.48,-2.63 0.97,-5.24 1.49,-7.83 0.37,-1.9 0.74,-3.79 1.13,-5.67 0.43,-5.78 0.9,-12.38 1.32,-19.47 0.52,-8.81 1.01,-18.63 1.32,-29.15l0 -0.02c0.3,-9.43 -0.15,-18.18 -1.06,-26.02 -1.09,-9.3 -2.83,-17.25 -4.71,-23.51 -0.85,-2.81 -1.73,-5.22 -2.6,-7.21 -0.71,2.05 -1.51,4.47 -2.35,7.24 -1.47,4.85 -3,10.58 -4.33,16.85z"/>
   <path class="fil2" d="M2073.25 128.34c15.06,-20.29 28.13,-58.39 20.39,-80.85 -17.49,24.17 -28.11,50.04 -20.39,80.85z"/>
   <path class="fil2" d="M2117.87 60.08c13.92,-18.36 34.23,-38.11 36.23,-60.08 -22.27,14.81 -37.41,36.32 -36.23,60.08z"/>
   <path class="fil2" d="M2369.78 756.62c-117.86,-62.87 -281.83,-122.52 -352.02,32.41 92.14,-58.64 266.82,-67.2 352.02,-32.41z"/>
   <path class="fil2" d="M2148.91 656.91c-14.56,-2.62 -29.57,-6.23 -43.71,-11.29 -13.76,-5 -26.69,-9.75 -39.12,-14.41 -11.74,-4.4 -21.73,-8.24 -29.69,-11.47l-0.05 -0.04c-1.49,-0.59 -2.91,-1.16 -4.28,-1.71 -5.76,-2.87 -11.47,-5.53 -17.1,-8 3,-1.48 7.46,-3.4 13.61,-5.35 3.51,-1.05 7.49,-2.03 12,-2.88 4.07,-0.76 8.63,-1.43 13.72,-1.94 2.65,-0.25 5.36,-0.38 8.19,-0.44 2.7,-0.05 5.79,-0.03 9.19,0.04l0.02 -0c3.28,0.05 6.59,0.2 9.9,0.48 3.35,0.28 6.88,0.71 10.57,1.3l0.11 0.02c14.03,1.95 28.81,6.06 43.15,11.46 16.01,6.03 31.43,13.64 44.66,21.63 3.43,2.11 6.51,4.04 9.22,5.78 2.67,1.71 5.44,3.54 8.31,5.48 2.43,1.75 4.74,3.46 6.93,5.11 2.37,1.78 4.64,3.52 6.77,5.19l0.07 0.05c2.99,2.28 5.59,4.45 7.74,6.36l0.8 0.71 -0.3 0.02 0 0.02c-3.28,0.2 -7.6,0.24 -12.74,0.12 -5.11,-0.12 -10.81,-0.41 -16.89,-0.87 -12.33,-1.11 -26.42,-2.74 -41.08,-5.38z"/>
   <path class="fil2" d="M2174.21 55.96c-3.56,1.9 -7.24,3.72 -10.94,5.37l-0.13 0.06c-2.39,1.01 -4.91,2.05 -7.59,3.12 -2.3,0.91 -4.4,1.71 -6.28,2.39l-1.82 0.66 -32.95 10.62c7.82,-8.03 15.6,-16.22 23.52,-24.14 1.84,-1.83 3.82,-3.71 5.87,-5.49 1.67,-1.46 3.77,-3.16 6.35,-5.12 5.33,-4.05 7.89,-5.83 13.75,-9.13 2.45,-1.38 4.96,-2.58 7.47,-3.61 2.71,-1.11 5.3,-1.97 7.77,-2.62 2.51,-0.67 4.99,-1.13 7.36,-1.44 2.62,-0.34 5.05,-0.45 7.22,-0.4l24.64 0.57 -20.1 14.23c-1.92,1.36 -4.05,2.82 -6.27,4.28 -2.27,1.5 -4.49,2.92 -6.55,4.18 -3.41,2.09 -7.2,4.29 -11.32,6.48zm-14.26 -2.07c7.62,-3.39 14.97,-7.47 21.33,-11.37 4.85,-2.98 9.07,-5.81 12.37,-8.14 -3.44,-0.08 -7.64,0.33 -12.35,1.58 -4.17,1.1 -8.68,2.85 -13.32,5.47l0.01 0.02c-4.89,2.8 -9.16,5.68 -12.83,8.47 -4.59,3.49 -8.41,6.94 -11.39,9.91l-0.52 0.53c1.02,-0.33 2.11,-0.7 3.28,-1.12 3.58,-1.29 8.01,-3.05 13.42,-5.35z"/>
   <path class="fil2" d="M2119.09 98.24c1.59,-1.22 3.12,-2.3 4.58,-3.26 1.41,-0.92 2.99,-1.86 4.69,-2.79 1.74,-0.95 3.33,-1.74 4.78,-2.38 1.27,-0.58 2.58,-1.13 3.92,-1.65 1.41,-0.54 2.74,-1 4.01,-1.39 1.38,-0.42 2.73,-0.77 4.05,-1.07 1.52,-0.34 2.85,-0.59 4.02,-0.76 0.48,-0.08 0.99,-0.15 1.52,-0.21l22.77 -2.07 -14.54 15.62c-1.98,2.12 -4.49,4.73 -7.47,7.71 -2.47,2.46 -5.15,5.06 -7.97,7.69 -3.66,3.41 -7.64,6.97 -11.81,10.46 -3.66,3.07 -7.55,6.14 -11.59,9.13l-0.06 0.03c-3.12,2.24 -5.75,4.1 -7.94,5.6 -2.68,1.83 -5,3.36 -6.99,4.63 -1.01,0.64 -2.33,1.45 -3.96,2.43 -1.21,0.72 -2.38,1.39 -3.52,2.01l-19.9 10.87 9.44 -23.61 1 -1.68 0.06 -0.06 0.73 -1.22 0.03 -0.1c1.52,-2.45 3.35,-5.17 5.51,-8.11 1.86,-2.53 3.94,-5.19 6.26,-7.91 2.05,-2.41 4.31,-4.91 6.8,-7.45 2.19,-2.23 4.58,-4.52 7.2,-6.84 1.52,-1.35 2.97,-2.55 4.36,-3.61zm33.83 -5.52c-0.8,0.07 -1.66,0.17 -2.56,0.31l-0.02 0c-2.15,0.31 -4.47,0.8 -6.89,1.54 -2.19,0.67 -4.51,1.54 -6.9,2.66l-0.1 0.06c-2.69,1.19 -5.47,2.69 -8.29,4.54 -2.71,1.77 -5.4,3.81 -8.02,6.13 -5.04,4.46 -9.42,9.04 -13.17,13.46 -4.72,5.56 -8.37,10.74 -11.07,15.07l-1.44 2.4 -0.77 1.92c1.98,-1.08 4.3,-2.47 7.01,-4.18 4.19,-2.66 9.01,-5.94 14.55,-9.94 8.25,-6.08 16.02,-12.79 22.66,-18.98 6.23,-5.82 11.4,-11.1 15.02,-14.98z"/>
   <path class="fil2" d="M2106.45 156.86c3.79,-2.08 7.43,-3.64 10.75,-4.76 0.18,-0.06 1.26,-0.45 1.36,-0.45 0.96,-0.3 1.9,-0.57 2.81,-0.82 1.31,-0.35 2.67,-0.65 4.02,-0.89l18.01 -3.26 -10.44 16.86 0 0.03 -0.86 1.35c-1.03,1.63 -2.42,3.79 -4.22,6.52 -1.81,2.75 -3.42,5.16 -4.71,7.03 -2.27,3.39 -4.45,6.62 -6.28,9.25 -2.04,2.94 -4.42,6.27 -7.23,10.07 -2.63,3.57 -5.32,7.08 -8,10.44 -2.72,3.41 -5.64,6.92 -8.8,10.51 -1.17,1.33 -2.62,2.96 -4.24,4.77l0 0.03 -4.21 4.65 -3.82 4.12 0.02 0.02 -3.43 3.68c-1.11,1.15 -2.19,2.25 -3.24,3.29 -0.73,0.72 -1.73,1.68 -2.91,2.78l-2.3 2.12 -2.28 2.01 -17.4 14.83 4.74 -26.12 0.7 -3.65c0.44,-2.17 0.87,-4.34 1.33,-6.5l0.23 -0.67c1.17,-3.36 2.46,-6.76 3.87,-10.05 1.27,-2.96 2.83,-6.26 4.71,-9.93l0 -0.03c1.85,-3.61 3.99,-7.41 6.43,-11.36 2.27,-3.66 4.7,-7.3 7.3,-10.84 2.69,-3.66 5.51,-6.95 8.38,-9.9 3.1,-3.2 6.27,-5.99 9.41,-8.41 3.47,-2.67 6.93,-4.89 10.28,-6.73zm-42.68 69.9c-0.45,2.07 -0.86,4.1 -1.24,6.08 -0.47,2.37 -0.93,4.77 -1.37,7.18 1.32,-1.12 2.77,-2.41 4.33,-3.87 1.68,-1.57 3.62,-3.47 5.83,-5.78 2.06,-2.2 4.38,-4.71 7.07,-7.65 2.76,-3.02 5.59,-6.17 8.35,-9.33 5.92,-6.73 11.41,-13.71 16.38,-20.44 4.99,-6.75 9.45,-13.25 13.3,-19.03l0.02 -0.04c3.53,-5.16 6.49,-9.69 8.77,-13.3l1.63 -2.61c-1.99,0.36 -4.35,0.96 -7.01,1.87l-0.02 0c-5.47,1.85 -11.98,5.09 -18.64,10.21 -5.48,4.22 -11.04,9.69 -16.19,16.68 -5.28,7.19 -9.58,14.36 -13.06,21.12 -3.52,6.86 -6.19,13.3 -8.14,18.92z"/>
   <path class="fil2" d="M2093.75 247.89c-3.13,2.51 -6.24,5.36 -9.11,8.57l-0.06 0.06c-1.54,1.67 -3.04,3.42 -4.49,5.22 -1.39,1.74 -2.73,3.53 -4,5.36 -1.22,1.93 -2.4,3.96 -3.51,6.08 -1.08,2.05 -2.09,4.17 -3.02,6.34l-0.02 0.06c-3.81,8.64 -6.01,17.14 -8.02,24.9l-0.22 0.83c-0.77,3.99 -1.45,7.83 -2.02,11.53 -0.55,3.6 -0.96,6.9 -1.17,9.83 -0.17,2.84 -0.27,5.27 -0.32,7.31 -0.05,1.96 -0.07,3.7 -0.07,5.2 1.11,-1.23 2.37,-2.68 3.76,-4.39 1.5,-1.84 3.13,-3.97 4.86,-6.41 1.53,-2.15 3.12,-4.51 4.75,-7.1l0.08 -0.12c1.86,-2.79 3.81,-5.84 5.8,-9.16 1.91,-3.19 3.91,-6.76 5.99,-10.74l0.09 -0.15c6.14,-10.95 11.67,-22.89 16.74,-33.87 2.15,-4.66 4.23,-9.14 6.33,-13.48 3.15,-6.75 5.9,-12.83 8,-17.6l0.38 -0.87c-3.24,1.31 -7.15,3.27 -11.37,5.95l-0.02 0c-2.97,1.88 -6.18,4.08 -9.36,6.63zm-10.21 -1.96c1.66,-1.55 3.37,-3.02 5.1,-4.4 1.79,-1.44 3.52,-2.73 5.17,-3.89 1.59,-1.12 3.26,-2.22 4.95,-3.28l2.03 -1.28 0.05 0c1.39,-0.82 2.82,-1.61 4.27,-2.37 2.41,-1.27 4.53,-2.24 6.32,-2.97l18.56 -7.52 -8.39 19.23c-1.27,2.9 -2.53,5.71 -3.71,8.32 -0.87,1.92 -2.33,5.06 -4.38,9.47l-0.03 0.1c-1.96,4.04 -4.05,8.56 -6.22,13.26l-0.07 0.15c-5.13,11.1 -10.72,23.18 -16.96,34.31 -0.84,1.61 -1.91,3.58 -3.18,5.86 -1.06,1.9 -2.08,3.66 -3.06,5.3 -1.3,2.17 -2.29,3.79 -3.04,4.97 -0.67,1.06 -1.69,2.6 -2.94,4.47l-0.03 0.05 0.02 0.01 -0.08 0.12 -0.02 -0.01c-0.75,1.19 -1.55,2.4 -2.37,3.63 -0.91,1.35 -1.75,2.58 -2.53,3.67 -1.03,1.45 -1.88,2.6 -2.56,3.5l-0.03 0c-1.06,1.4 -1.91,2.49 -2.59,3.32l0 0.03c-0.42,0.51 -1.14,1.36 -2.12,2.5 -0.87,1.01 -1.49,1.72 -1.9,2.18l-14.19 15.73 -0.03 -21.2 0.01 -2.63 0.05 -2.76c0.08,-2.44 0.32,-5.3 0.32,-7.69 0.12,-1.68 0.29,-3.36 0.49,-5.05 0.22,-1.78 0.46,-3.59 0.74,-5.42 0.29,-1.93 0.62,-3.88 0.97,-5.85 0.28,-1.56 0.66,-3.62 1.12,-6 0.11,-0.46 0.22,-0.9 0.34,-1.34 2.1,-8.11 4.4,-16.99 8.44,-26.14 0.6,-1.39 1.12,-2.56 1.56,-3.47 0.45,-0.94 1.04,-2.1 1.74,-3.44 0.46,-0.87 1.09,-1.99 1.86,-3.34l0 -0.03c0.61,-1.06 1.27,-2.15 1.98,-3.26l0.19 -0.29c0.9,-1.3 1.59,-2.27 2.1,-2.94 0.32,-0.43 1.07,-1.38 2.26,-2.87l0 -0.03c0.76,-0.95 1.55,-1.9 2.35,-2.84 0.88,-1.02 1.69,-1.94 2.45,-2.77l0.29 -0.32c1.38,-1.53 2.97,-3.12 4.71,-4.74l0 -0.03z"/>
   <path class="fil2" d="M2102.51 328.77c-6.08,5.76 -12.63,13.6 -17.83,22.91 -4.17,7.46 -7.45,15.84 -8.88,24.8l-0.02 0.16c-1,5.15 -1.54,10.14 -1.83,14.93 -0.31,4.97 -0.38,9.52 -0.44,13.84 0.21,4.24 0.43,8.31 0.78,12.49 0.33,3.88 0.74,7.36 1.34,10.3l0.02 0.1c0.49,2.7 1.06,5.45 1.64,8.13 0.54,2.43 1.05,4.55 1.52,6.31 1.09,-1.88 2.37,-4.27 3.78,-7.19l0.02 -0.08c1.22,-2.44 2.48,-5.14 3.72,-8.05 1.17,-2.74 2.32,-5.64 3.4,-8.66l0.24 -0.68c2.4,-6.66 5.23,-14.48 7.48,-23.08l0.04 -0.14c4.71,-16.12 8.49,-33.72 11.68,-48.56l1.24 -5.73c1.47,-5.95 2.54,-11.19 3.44,-15.61 0.4,-1.98 0.8,-3.95 1.24,-5.91 -3.5,2.17 -7.86,5.43 -12.58,9.73zm-16.26 5.82c3.44,-4.42 7.09,-8.37 10.63,-11.73l0.13 -0.13c2.34,-2.13 4.67,-4.08 6.92,-5.82 2.52,-1.95 4.83,-3.56 6.83,-4.8l16.52 -10.27 -4.25 18.96c-0.31,1.38 -0.68,3.22 -1.06,5.05l-1.66 8.06c-0.53,2.44 -1.17,5.25 -2,8.61l-1.17 5.47c-1.62,7.55 -3.39,15.8 -5.3,23.97 -1.91,8.19 -4.06,16.69 -6.52,25.12l-0 0.02 0.02 0 -0.04 0.14 -0.02 -0c-2.18,8.33 -4.82,15.78 -7.14,22.21l-0.75 2.08c-0.72,1.98 -1.28,3.47 -1.69,4.53 -0.57,1.46 -1.21,2.99 -1.88,4.57 -0.66,1.56 -1.29,2.98 -1.89,4.28 -0.78,1.68 -1.45,3.07 -2.02,4.22 -0.71,1.44 -1.37,2.76 -2,3.95l0 0.03c-0.72,1.38 -1.41,2.63 -2.06,3.74l-9.86 17.08 -5.09 -19.09 -0.79 -3.19 -0.83 -3.47 -0.88 -4.32c-0.32,-1.57 -0.58,-2.91 -0.78,-4.01l-0.01 0 -0.02 -0.1 0.01 -0c-0.33,-1.65 -0.61,-3.43 -0.85,-5.3 -0.29,-2.28 -0.5,-4.2 -0.63,-5.85 -0.15,-1.74 -0.29,-3.94 -0.44,-6.42l-0.33 -6.36 0 -0.48c0.03,-2.25 0.06,-4.55 0.12,-6.77l0 -0.03c0.07,-2.57 0.17,-5.08 0.32,-7.42l0 -0.03c0.17,-2.64 0.39,-5.25 0.69,-7.78 0.31,-2.62 0.72,-5.34 1.27,-8.17 0.78,-4.87 2.01,-9.48 3.56,-13.81 1.68,-4.7 3.81,-9.25 6.23,-13.58 2.71,-4.85 5.67,-9.24 8.7,-13.13z"/>
   <path class="fil2" d="M2125.33 419.3c-5.32,7.84 -10.26,17.89 -13.32,29.09 -2.56,9.37 -3.8,19.54 -2.84,29.86l0 0.02c0.92,10.25 2.82,19.73 5.19,28.22 2.95,10.56 6.64,19.56 10.14,26.6 1.64,3.29 3.12,6.17 4.45,8.56 1.3,2.36 2.49,4.31 3.53,5.79l0.76 1.13c0.75,-2.65 1.65,-6.29 2.47,-10.91l0.02 -0.08c1.17,-6.01 2.26,-13.48 3.06,-22.24 0.7,-7.63 1.2,-16.29 1.36,-25.87l0 -0.04c0.41,-17.35 -0.24,-35.55 -0.8,-51.22l-0.33 -9.53c-0.08,-3.69 -0.28,-7.45 -0.46,-10.9l-0.06 -1.35c-0.02,-1.71 -0.05,-3.41 -0.1,-5.06 -0.05,-1.5 -0.11,-3.04 -0.2,-4.6l-0.2 -2.89c-3.61,3.37 -8.17,8.58 -12.6,15.35l-0.06 0.06zm-15.22 10.54c2.54,-5.54 5.43,-10.62 8.45,-15.07 2.16,-3.3 4.44,-6.37 6.71,-9.13 2.58,-3.15 5.04,-5.74 7.17,-7.73l12.53 -11.69c0.51,7.5 1.13,15 1.49,22.5l0.09 2.43c0.04,1.68 0.02,3.57 0.11,5.24l0.02 0.05c0,2.08 0.19,4.27 0.29,6.36 0.08,1.72 0.15,3.59 0.19,5.7 0,0.09 0.04,0.16 0.04,0.26l-0.02 0 0.32 9.18 0.03 0.3 -0.02 0c0.56,15.63 1.19,33.74 0.79,51.21l0.03 0c0,0.07 -0.03,0.13 -0.03,0.19 -0.08,4.91 -0.24,9.41 -0.45,13.51 -0.23,4.44 -0.55,8.77 -0.94,12.95 -0.41,4.43 -0.87,8.44 -1.36,12.03 -0.57,4.16 -1.18,7.81 -1.79,10.96 -0.4,2.3 -0.88,4.54 -1.35,6.61 -0.49,2.12 -0.93,3.81 -1.3,5.13l-4.82 16.94 -10.47 -15.61c-0.6,-0.84 -1.26,-1.85 -1.96,-3.01l0 -0.03c-0.59,-0.96 -1.27,-2.15 -2.02,-3.51 -0.99,-1.78 -1.71,-3.13 -2.23,-4.13 -1.04,-2.01 -1.82,-3.53 -2.41,-4.72l0 -0.03c-2,-4.03 -4.04,-8.6 -5.95,-13.62 -1.65,-4.31 -3.25,-9.12 -4.73,-14.42 -1.29,-4.63 -2.46,-9.56 -3.41,-14.76 -0.87,-4.71 -1.56,-9.69 -2.04,-14.92l-0.06 -0.72c-0.44,-5.25 -0.38,-10.44 0.11,-15.51 0.54,-5.66 1.61,-11.2 3.06,-16.51 1.59,-5.82 3.64,-11.34 5.96,-16.41z"/>
   <path class="fil2" d="M2231.62 644.39c-0.11,-3.3 -0.47,-8.34 -1.46,-14.91l0 -0.1c-0.41,-3.06 -0.94,-6.63 -1.68,-10.78 -0.7,-3.94 -1.55,-8.16 -2.59,-12.57l-0.89 -3.99c-0.74,-3.32 -1.53,-6.84 -2.55,-10.69l-4.46 -16.51c-4.4,-15.12 -9.7,-31.12 -14.52,-45.67 -2.09,-6.3 -4.07,-12.29 -6.39,-19.54l-0.02 -0.08c-0.55,-1.8 -1.29,-4.1 -2.13,-6.68 -0.98,-2.97 -1.61,-4.86 -2.05,-6.12l-0.08 -0.24c-0.47,-1.61 -1.03,-3.43 -1.65,-5.41 -0.57,-1.81 -1.12,-3.47 -1.63,-4.99 -0.59,-1.6 -1.07,-2.98 -1.48,-4.19l-0.31 0.46c-1.74,2.64 -3.66,6.03 -5.53,10.08 -1.65,3.56 -3.24,7.57 -4.65,11.95l-0.02 0.08c-3.55,10.4 -5.95,23.25 -5.74,36.71 0.17,11.16 2.13,22.77 6.73,33.77l0 0.02c5.11,12.37 11.33,23.13 17.69,32.26 6.36,9.12 12.91,16.64 18.67,22.52 7.4,7.46 13.41,12.2 16.76,14.63zm-66.58 -123.11c1.1,-7.07 2.76,-13.63 4.73,-19.43 0.72,-2.24 1.5,-4.41 2.3,-6.48 0.91,-2.35 1.82,-4.47 2.68,-6.35 0.99,-2.14 1.99,-4.11 2.96,-5.89 1.06,-1.94 2.13,-3.71 3.17,-5.28l9.4 -14.19 6.08 17.48c0.59,1.64 1.15,3.24 1.7,4.9l0.83 2.58c0.26,0.79 0.08,0.28 0.91,2.99l0.74 2.44 2.11 6.25 1.19 3.69 0.97 3.13c1.69,5.27 3.96,12.13 6.33,19.27l-0.03 0.01 0.06 0.2 0.03 0c2.08,6.28 4.27,12.87 7.42,22.69 2.47,7.68 4.91,15.51 7.17,23.27l0.06 0.16 4.46 16.54c0.59,2.2 1.05,4.08 1.45,5.77l2.04 9.13 0.02 -0c0.45,1.91 0.94,4.17 1.46,6.69 0.55,2.7 0.96,4.78 1.23,6.33 0.4,2.28 0.73,4.24 1,5.96l-0.03 0c0.3,1.96 0.55,3.64 0.74,5.11 0.48,3.15 0.84,6.27 1.1,9.16 0.24,2.69 0.37,4.94 0.43,6.71l0.56 16.69 -13.5 -9.82c-2.02,-1.47 -5.02,-3.78 -8.82,-7.11 -2.68,-2.34 -5.7,-5.13 -8.93,-8.39l-0.06 -0.06c-3.05,-3.11 -6.27,-6.62 -9.52,-10.5 -3.21,-3.82 -6.56,-8.16 -9.98,-13.05 -3.35,-4.81 -6.66,-10.02 -9.77,-15.61 -3.13,-5.64 -6.11,-11.71 -8.79,-18.2 -0.06,-0.14 -0.64,-1.51 -0.64,-1.57 -2.11,-5.33 -3.66,-10.74 -4.74,-16.13 -1.25,-6.28 -1.87,-12.72 -1.96,-19.11 -0.1,-6.89 0.43,-13.62 1.43,-19.99z"/>
   <path class="fil0" d="M3444.87 891.49c-20.59,-0.11 -41.71,-0.11 -62.28,0.52l-0.07 0c-65.64,1.23 -129,13.9 -192.31,26.55 -47.69,9.53 -95.35,19.06 -144.59,23.79 -96.75,9.69 -196.62,-12.05 -290.37,-32.46 -108.61,-23.64 -208.91,-45.47 -284.17,-13.76l-2.37 1 -2.37 -1c-75.26,-31.71 -175.56,-9.88 -284.17,13.76 -93.76,20.41 -193.63,42.15 -290.37,32.46 -49.24,-4.73 -96.9,-14.26 -144.59,-23.79 -63.31,-12.66 -126.67,-25.32 -192.31,-26.55l-0.07 0c-20.57,-0.63 -41.68,-0.63 -62.28,-0.52l-0.05 -12.22c20.71,-0.12 41.97,-0.12 62.67,0.51 66.98,1.26 130.73,14.01 194.44,26.75 47.58,9.51 95.13,19.02 143.37,23.64l0.02 0c94.76,9.49 193.7,-12.05 286.59,-32.27 109.43,-23.82 210.58,-45.83 289.13,-14.01 78.55,-31.82 179.7,-9.81 289.13,14.01 92.89,20.22 191.83,41.75 286.59,32.27l0.02 0c48.23,-4.63 95.79,-14.13 143.37,-23.64 63.71,-12.74 127.46,-25.48 194.44,-26.75 20.69,-0.64 41.95,-0.63 62.67,-0.51l-0.05 12.22z"/>
   <path class="fil2" d="M2468.7 816.4c66.32,-84.36 101.43,-91.37 221.66,-157.37 32.5,-19.57 67.25,-47.96 98.02,-84.14 30.83,-36.1 56.76,-80.57 73.53,-128.36 16.92,-47.76 24.27,-98.66 22.91,-146.09 -0.51,-23.74 -3.45,-46.59 -7.69,-67.92 -7.97,-41.48 -30.85,-101.95 -50.99,-142.12 -10.94,-21.8 -20.77,-37.59 -21.96,-40.55 -1.06,-2.63 4.71,4.87 22.61,27.31 19.23,24.1 36.84,62.93 47.09,91.63 6.58,18.49 12.53,38.97 16.78,61.05 4.38,22.04 7.41,45.66 7.95,70.2 1.41,49.04 -6.19,101.68 -23.69,151.06 -17.33,49.41 -44.13,95.36 -76,132.68 -31.81,37.4 -67.74,66.74 -101.35,86.99 -77.45,47.7 -149.5,67.54 -228.87,145.62z"/>
   <path class="fil2" d="M2850.34 551.63c-8.08,3.36 -14.98,5.25 -20.53,6.37 -4.84,0.89 -8.62,1.26 -11.34,1.39l0.76 -0.94c1.19,-1.38 2.45,-2.93 3.89,-4.71 2.05,-2.53 4.47,-5.53 7.24,-8.69l0.02 -0.02c5.43,-6.24 12.01,-13.65 19.56,-21.91 6.3,-6.89 13.61,-14.74 21.98,-23.53 8.6,-8.97 18.5,-17.07 28.45,-24.21 10.07,-7.22 20.1,-13.4 28.93,-18.52 8.12,-4.54 15.22,-8.02 20.4,-10.08 -0.9,1.97 -1.96,4.16 -3.18,6.48l-0.04 0.04c-1.23,2.42 -2.31,4.51 -3.18,6.14 -1.01,1.9 -2.15,3.99 -3.42,6.27 -1.41,2.38 -2.84,4.71 -4.3,7.01 -1.3,2.07 -2.95,4.6 -4.81,7.45 -7.04,10.6 -15.75,21.75 -25.41,32.01 -8.61,9.14 -17.92,17.55 -27.42,24.19 -10.17,7.01 -19.45,11.87 -27.6,15.26z"/>
   <path class="fil2" d="M2918.88 411.73c-3.47,4.32 -6.77,8.16 -9.95,11.55 -3.15,3.35 -6.18,6.26 -9.17,8.76 -3.02,2.53 -5.85,4.68 -8.46,6.52 -2.59,1.82 -4.95,3.31 -7.08,4.55 -2.84,1.59 -5.26,2.76 -7.23,3.6 0.64,-1.69 1.42,-3.73 2.35,-6.04 0.94,-2.33 2.09,-5.05 3.49,-8.16 1.1,-2.32 2.24,-4.95 3.46,-7.75 1.89,-4.34 3.97,-9.12 6.56,-14.22l0.12 -0.28c2.06,-4.73 4.86,-10.37 7.85,-16.36 1.91,-3.83 3.89,-7.8 5.82,-11.88 4.71,-9.1 10.29,-17.76 16.16,-25.74 7.07,-9.6 14.53,-18.16 21.42,-25.24l0.06 -0.06c4.81,-5.11 9.27,-9.3 12.85,-12.26 -0.23,1.41 -0.5,3.01 -0.8,4.79 -0.64,3.39 -1.55,7.36 -2.67,11.76 -1.19,4.7 -2.58,9.72 -4.12,14.9 -3.42,10.8 -8.07,22.5 -13.67,33.73 -5,10.03 -10.74,19.64 -16.99,27.84z"/>
   <path class="fil2" d="M2934.05 271.39c-2.17,10.4 -5.11,20.64 -8.72,29.69 -1.96,4.57 -3.91,8.65 -5.82,12.28 -2.09,3.97 -4.14,7.46 -6.14,10.51 -1.98,2.87 -3.95,5.46 -5.86,7.8 -1.9,2.33 -3.62,4.24 -5.15,5.82l-0.02 0.04c-1.54,1.6 -2.93,2.92 -4.16,3.99 0.15,-1.4 0.35,-3.03 0.6,-4.88 0.31,-2.29 0.73,-5.02 1.28,-8.25l0 -0.06c0.54,-3.39 0.63,-3.97 0.74,-4.71 0.8,-5.27 1.72,-11.25 3.05,-17.54l0.06 -0.3c0.8,-5.46 1.99,-11.17 3.24,-17.25 0.79,-3.81 1.61,-7.76 2.3,-11.47 0.49,-2.45 1.1,-4.93 1.79,-7.44 0.67,-2.43 1.45,-4.9 2.3,-7.41l0.06 -0.18c0.77,-2.59 1.56,-4.98 2.36,-7.19 0.78,-2.18 1.69,-4.49 2.69,-6.91 2.12,-4.92 4.13,-9.42 6,-13.32 1.96,-4.08 3.94,-7.94 5.98,-11.51 2.8,-4.9 5.41,-9.08 7.66,-12.3 0.12,1.97 0.21,4.21 0.28,6.68 0.17,6.09 0.12,13.5 -0.34,21.66l0 0.06c-0.45,10.04 -1.88,21.17 -4.18,32.2z"/>
   <path class="fil2" d="M2901.92 142.9c1.81,9.01 3.16,19.34 3.49,30.04 0.28,9.08 -0.17,18.43 -1.69,27.46 -0.82,4.9 -1.75,9.33 -2.76,13.31 -1.01,4 -2.07,7.46 -3.15,10.45l-0.02 0.06c-1.04,2.99 -2.08,5.67 -3.12,8.08 -0.9,2.11 -1.75,3.88 -2.53,5.37 -0.48,-2.63 -0.97,-5.24 -1.48,-7.83 -0.37,-1.9 -0.74,-3.79 -1.13,-5.67 -0.43,-5.78 -0.9,-12.38 -1.32,-19.47 -0.52,-8.81 -1,-18.63 -1.32,-29.15l0 -0.02c-0.3,-9.43 0.15,-18.18 1.07,-26.02 1.09,-9.3 2.83,-17.25 4.7,-23.51 0.85,-2.81 1.73,-5.22 2.6,-7.21 0.72,2.05 1.51,4.47 2.35,7.24 1.47,4.85 3,10.58 4.32,16.85z"/>
   <path class="fil2" d="M2864.15 128.34c-15.07,-20.29 -28.13,-58.39 -20.39,-80.85 17.49,24.17 28.12,50.04 20.39,80.85z"/>
   <path class="fil2" d="M2819.53 60.08c-13.92,-18.36 -34.23,-38.11 -36.23,-60.08 22.27,14.81 37.41,36.32 36.23,60.08z"/>
   <path class="fil2" d="M2567.62 756.62c117.86,-62.87 281.83,-122.52 352.02,32.41 -92.14,-58.64 -266.82,-67.2 -352.02,-32.41z"/>
   <path class="fil2" d="M2763.18 55.96c3.56,1.9 7.24,3.72 10.94,5.37l0.13 0.06c2.39,1.01 4.91,2.05 7.59,3.12 2.3,0.91 4.39,1.71 6.28,2.39l1.82 0.66 32.95 10.62c-7.82,-8.03 -15.6,-16.22 -23.52,-24.14 -1.83,-1.83 -3.82,-3.71 -5.87,-5.49 -1.67,-1.46 -3.76,-3.16 -6.35,-5.12 -5.33,-4.05 -7.88,-5.83 -13.75,-9.13 -2.45,-1.38 -4.95,-2.58 -7.47,-3.61 -2.7,-1.11 -5.3,-1.97 -7.77,-2.62 -2.51,-0.67 -4.99,-1.13 -7.36,-1.44 -2.62,-0.34 -5.05,-0.45 -7.22,-0.4l-24.64 0.57 20.1 14.23c1.92,1.36 4.05,2.82 6.27,4.28 2.27,1.5 4.49,2.92 6.55,4.18 3.4,2.09 7.2,4.29 11.31,6.48zm14.26 -2.07c-7.62,-3.39 -14.97,-7.47 -21.33,-11.37 -4.85,-2.98 -9.07,-5.81 -12.37,-8.14 3.44,-0.08 7.64,0.33 12.35,1.58 4.17,1.1 8.68,2.85 13.32,5.47l-0.01 0.02c4.89,2.8 9.16,5.68 12.83,8.47 4.59,3.49 8.41,6.94 11.39,9.91l0.52 0.53c-1.02,-0.33 -2.11,-0.7 -3.28,-1.12 -3.58,-1.29 -8.01,-3.05 -13.42,-5.35z"/>
   <path class="fil2" d="M2818.31 98.24c-1.59,-1.22 -3.12,-2.3 -4.58,-3.26 -1.41,-0.92 -2.99,-1.86 -4.69,-2.79 -1.74,-0.95 -3.33,-1.74 -4.78,-2.38 -1.27,-0.58 -2.58,-1.13 -3.92,-1.65 -1.4,-0.54 -2.74,-1 -4.01,-1.39 -1.38,-0.42 -2.73,-0.77 -4.05,-1.07 -1.52,-0.34 -2.85,-0.59 -4.02,-0.76 -0.48,-0.08 -0.99,-0.15 -1.53,-0.21l-22.77 -2.07 14.55 15.62c1.98,2.12 4.49,4.73 7.47,7.71 2.46,2.46 5.15,5.06 7.97,7.69 3.66,3.41 7.64,6.97 11.81,10.46 3.66,3.07 7.55,6.14 11.59,9.13l0.06 0.03c3.12,2.24 5.75,4.1 7.94,5.6 2.68,1.83 5,3.36 6.99,4.63 1.01,0.64 2.33,1.45 3.96,2.43 1.2,0.72 2.38,1.39 3.52,2.01l19.9 10.87 -9.44 -23.61 -1 -1.68 -0.06 -0.06 -0.74 -1.22 -0.03 -0.1c-1.52,-2.45 -3.35,-5.17 -5.51,-8.11 -1.86,-2.53 -3.94,-5.19 -6.25,-7.91 -2.05,-2.41 -4.31,-4.91 -6.8,-7.45 -2.18,-2.23 -4.58,-4.52 -7.2,-6.84 -1.52,-1.35 -2.97,-2.55 -4.36,-3.61zm-33.83 -5.52c0.8,0.07 1.66,0.17 2.57,0.31l0.02 0c2.15,0.31 4.47,0.8 6.89,1.54 2.2,0.67 4.51,1.54 6.9,2.66l0.1 0.06c2.69,1.19 5.47,2.69 8.29,4.54 2.71,1.77 5.4,3.81 8.02,6.13 5.04,4.46 9.42,9.04 13.17,13.46 4.72,5.56 8.37,10.74 11.07,15.07l1.44 2.4 0.77 1.92c-1.98,-1.08 -4.3,-2.47 -7.01,-4.18 -4.19,-2.66 -9.01,-5.94 -14.55,-9.94 -8.25,-6.08 -16.03,-12.79 -22.66,-18.98 -6.23,-5.82 -11.4,-11.1 -15.02,-14.98z"/>
   <path class="fil2" d="M2830.95 156.86c-3.79,-2.08 -7.43,-3.64 -10.75,-4.76 -0.18,-0.06 -1.26,-0.45 -1.37,-0.45 -0.95,-0.3 -1.89,-0.57 -2.81,-0.82 -1.31,-0.35 -2.66,-0.65 -4.02,-0.89l-18 -3.26 10.43 16.86 0 0.03 0.86 1.35c1.03,1.63 2.42,3.79 4.22,6.52 1.81,2.75 3.42,5.16 4.71,7.03 2.27,3.39 4.45,6.62 6.28,9.25 2.04,2.94 4.42,6.27 7.23,10.07 2.63,3.57 5.32,7.08 8,10.44 2.72,3.41 5.64,6.92 8.8,10.51 1.17,1.33 2.62,2.96 4.24,4.77l0 0.03 4.21 4.65 3.82 4.12 -0.02 0.02 3.43 3.68c1.1,1.15 2.19,2.25 3.24,3.29 0.73,0.72 1.73,1.68 2.91,2.78l2.3 2.12 2.28 2.01 17.4 14.83 -4.74 -26.12 -0.7 -3.65c-0.44,-2.17 -0.87,-4.34 -1.33,-6.5l-0.23 -0.67c-1.16,-3.36 -2.46,-6.76 -3.87,-10.05 -1.27,-2.96 -2.83,-6.26 -4.71,-9.93l0 -0.03c-1.85,-3.61 -3.99,-7.41 -6.43,-11.36 -2.27,-3.66 -4.7,-7.3 -7.3,-10.84 -2.69,-3.66 -5.51,-6.95 -8.38,-9.9 -3.11,-3.2 -6.27,-5.99 -9.42,-8.41 -3.46,-2.67 -6.93,-4.89 -10.28,-6.73zm42.68 69.9c0.45,2.07 0.87,4.1 1.24,6.08 0.47,2.37 0.93,4.77 1.37,7.18 -1.32,-1.12 -2.76,-2.41 -4.33,-3.87 -1.68,-1.57 -3.62,-3.47 -5.83,-5.78 -2.06,-2.2 -4.38,-4.71 -7.06,-7.65 -2.76,-3.02 -5.59,-6.17 -8.35,-9.33 -5.92,-6.73 -11.41,-13.71 -16.38,-20.44 -4.99,-6.75 -9.45,-13.25 -13.3,-19.03l-0.02 -0.04c-3.53,-5.16 -6.49,-9.69 -8.77,-13.3l-1.63 -2.61c1.99,0.36 4.35,0.96 7.01,1.87l0.02 0c5.47,1.85 11.98,5.09 18.64,10.21 5.47,4.22 11.04,9.69 16.19,16.68 5.27,7.19 9.58,14.36 13.06,21.12 3.52,6.86 6.19,13.3 8.14,18.92z"/>
   <path class="fil2" d="M2843.65 247.89c3.13,2.51 6.24,5.36 9.11,8.57l0.06 0.06c1.54,1.67 3.05,3.42 4.49,5.22 1.39,1.74 2.73,3.53 4.01,5.36 1.22,1.93 2.4,3.96 3.51,6.08 1.08,2.05 2.09,4.17 3.01,6.34l0.02 0.06c3.82,8.64 6.02,17.14 8.03,24.9l0.21 0.83c0.77,3.99 1.45,7.83 2.02,11.53 0.55,3.6 0.96,6.9 1.17,9.83 0.17,2.84 0.27,5.27 0.32,7.31 0.05,1.96 0.07,3.7 0.06,5.2 -1.11,-1.23 -2.37,-2.68 -3.76,-4.39 -1.5,-1.84 -3.13,-3.97 -4.86,-6.41 -1.53,-2.15 -3.13,-4.51 -4.75,-7.1l-0.08 -0.12c-1.86,-2.79 -3.81,-5.84 -5.8,-9.16 -1.91,-3.19 -3.91,-6.76 -5.99,-10.74l-0.08 -0.15c-6.15,-10.95 -11.67,-22.89 -16.75,-33.87 -2.15,-4.66 -4.22,-9.14 -6.33,-13.48 -3.15,-6.75 -5.9,-12.83 -8,-17.6l-0.38 -0.87c3.24,1.31 7.16,3.27 11.37,5.95l0.02 0c2.97,1.88 6.18,4.08 9.36,6.63zm10.21 -1.96c-1.66,-1.55 -3.37,-3.02 -5.1,-4.4 -1.79,-1.44 -3.52,-2.73 -5.17,-3.89 -1.58,-1.12 -3.26,-2.22 -4.94,-3.28l-2.03 -1.28 -0.05 0c-1.38,-0.82 -2.82,-1.61 -4.27,-2.37 -2.41,-1.27 -4.53,-2.24 -6.32,-2.97l-18.56 -7.52 8.4 19.23c1.27,2.9 2.52,5.71 3.71,8.32 0.87,1.92 2.33,5.06 4.39,9.47l0.03 0.1c1.96,4.04 4.05,8.56 6.22,13.26l0.07 0.15c5.13,11.1 10.72,23.18 16.96,34.31 0.84,1.61 1.91,3.58 3.19,5.86 1.06,1.9 2.08,3.66 3.06,5.3 1.29,2.17 2.29,3.79 3.04,4.97 0.68,1.06 1.69,2.6 2.94,4.47l0.03 0.05 -0.02 0.01 0.08 0.12 0.02 -0.01c0.75,1.19 1.54,2.4 2.36,3.63 0.91,1.35 1.75,2.58 2.53,3.67 1.03,1.45 1.88,2.6 2.56,3.5l0.03 0c1.06,1.4 1.91,2.49 2.59,3.32l0 0.03c0.42,0.51 1.14,1.36 2.12,2.5 0.87,1.01 1.49,1.72 1.9,2.18l14.19 15.73 0.03 -21.2 -0.01 -2.63 -0.05 -2.76c-0.08,-2.44 -0.32,-5.3 -0.32,-7.69 -0.12,-1.68 -0.29,-3.36 -0.49,-5.05 -0.21,-1.78 -0.46,-3.59 -0.74,-5.42 -0.29,-1.93 -0.62,-3.88 -0.97,-5.85 -0.27,-1.56 -0.66,-3.62 -1.12,-6 -0.11,-0.46 -0.22,-0.9 -0.34,-1.34 -2.1,-8.11 -4.4,-16.99 -8.44,-26.14 -0.6,-1.39 -1.12,-2.56 -1.56,-3.47 -0.45,-0.94 -1.03,-2.1 -1.74,-3.44 -0.46,-0.87 -1.09,-1.99 -1.86,-3.34l0 -0.03c-0.61,-1.06 -1.27,-2.15 -1.98,-3.26l-0.19 -0.29c-0.9,-1.3 -1.59,-2.27 -2.1,-2.94 -0.32,-0.43 -1.07,-1.38 -2.26,-2.87l0 -0.03c-0.76,-0.95 -1.55,-1.9 -2.35,-2.84 -0.88,-1.02 -1.69,-1.94 -2.45,-2.77l-0.29 -0.32c-1.38,-1.53 -2.97,-3.12 -4.71,-4.74l0 -0.03z"/>
   <path class="fil2" d="M2834.89 328.77c6.08,5.76 12.63,13.6 17.84,22.91 4.16,7.46 7.44,15.84 8.88,24.8l0.02 0.16c1,5.15 1.54,10.14 1.84,14.93 0.31,4.97 0.38,9.52 0.44,13.84 -0.21,4.24 -0.43,8.31 -0.78,12.49 -0.33,3.88 -0.74,7.36 -1.34,10.3l-0.02 0.1c-0.49,2.7 -1.05,5.45 -1.64,8.13 -0.53,2.43 -1.05,4.55 -1.52,6.31 -1.09,-1.88 -2.38,-4.27 -3.78,-7.19l-0.02 -0.08c-1.22,-2.44 -2.48,-5.14 -3.72,-8.05 -1.17,-2.74 -2.32,-5.64 -3.4,-8.66l-0.24 -0.68c-2.4,-6.66 -5.23,-14.48 -7.48,-23.08l-0.04 -0.14c-4.71,-16.12 -8.49,-33.72 -11.68,-48.56l-1.24 -5.73c-1.47,-5.95 -2.54,-11.19 -3.44,-15.61 -0.41,-1.98 -0.8,-3.95 -1.24,-5.91 3.5,2.17 7.87,5.43 12.58,9.73zm16.26 5.82c-3.44,-4.42 -7.1,-8.37 -10.64,-11.73l-0.13 -0.13c-2.33,-2.13 -4.67,-4.08 -6.92,-5.82 -2.52,-1.95 -4.83,-3.56 -6.84,-4.8l-16.52 -10.27 4.24 18.96c0.31,1.38 0.69,3.22 1.06,5.05l1.66 8.06c0.53,2.44 1.17,5.25 2,8.61l1.17 5.47c1.62,7.55 3.39,15.8 5.3,23.97 1.91,8.19 4.06,16.69 6.52,25.12l0 0.02 -0.02 0 0.04 0.14 0.02 -0c2.19,8.33 4.82,15.78 7.14,22.21l0.75 2.08c0.72,1.98 1.27,3.47 1.69,4.53 0.57,1.46 1.21,2.99 1.87,4.57 0.66,1.56 1.29,2.98 1.89,4.28 0.77,1.68 1.44,3.07 2.01,4.22 0.71,1.44 1.37,2.76 2,3.95l0 0.03c0.72,1.38 1.42,2.63 2.06,3.74l9.86 17.08 5.09 -19.09 0.79 -3.19 0.83 -3.47 0.88 -4.32c0.32,-1.57 0.57,-2.91 0.78,-4.01l0.01 0 0.02 -0.1 -0.02 -0c0.33,-1.65 0.61,-3.43 0.85,-5.3 0.29,-2.28 0.49,-4.2 0.63,-5.85 0.15,-1.74 0.29,-3.94 0.44,-6.42l0.34 -6.36 0 -0.48c-0.03,-2.25 -0.06,-4.55 -0.12,-6.77l0 -0.03c-0.07,-2.57 -0.17,-5.08 -0.31,-7.42l0 -0.03c-0.17,-2.64 -0.39,-5.25 -0.69,-7.78 -0.31,-2.62 -0.73,-5.34 -1.28,-8.17 -0.78,-4.87 -2.01,-9.48 -3.56,-13.81 -1.68,-4.7 -3.81,-9.25 -6.23,-13.58 -2.71,-4.85 -5.67,-9.24 -8.7,-13.13z"/>
   <path class="fil2" d="M2812.06 419.3c5.32,7.84 10.26,17.89 13.32,29.09 2.56,9.37 3.81,19.54 2.85,29.86l0 0.02c-0.93,10.25 -2.82,19.73 -5.19,28.22 -2.95,10.56 -6.64,19.56 -10.14,26.6 -1.64,3.29 -3.13,6.17 -4.45,8.56 -1.3,2.36 -2.48,4.31 -3.53,5.79l-0.76 1.13c-0.75,-2.65 -1.65,-6.29 -2.47,-10.91l-0.02 -0.08c-1.17,-6.01 -2.26,-13.48 -3.07,-22.24 -0.7,-7.63 -1.2,-16.29 -1.36,-25.87l0 -0.04c-0.41,-17.35 0.24,-35.55 0.8,-51.22l0.33 -9.53c0.08,-3.69 0.28,-7.45 0.46,-10.9l0.06 -1.35c0.02,-1.71 0.05,-3.41 0.1,-5.06 0.05,-1.5 0.11,-3.04 0.2,-4.6l0.2 -2.89c3.61,3.37 8.16,8.58 12.6,15.35l0.06 0.06zm15.22 10.54c-2.54,-5.54 -5.43,-10.62 -8.45,-15.07 -2.15,-3.3 -4.44,-6.37 -6.71,-9.13 -2.58,-3.15 -5.03,-5.74 -7.17,-7.73l-12.53 -11.69c-0.51,7.5 -1.13,15 -1.49,22.5l-0.09 2.43c-0.05,1.68 -0.02,3.57 -0.11,5.24l-0.02 0.05c0,2.08 -0.19,4.27 -0.29,6.36 -0.08,1.72 -0.15,3.59 -0.19,5.7 -0,0.09 -0.03,0.16 -0.03,0.26l0.02 0 -0.32 9.18 -0.03 0.3 0.02 0c-0.55,15.63 -1.19,33.74 -0.79,51.21l-0.03 0c0,0.07 0.03,0.13 0.03,0.19 0.08,4.91 0.24,9.41 0.45,13.51 0.23,4.44 0.55,8.77 0.94,12.95 0.41,4.43 0.87,8.44 1.36,12.03 0.57,4.16 1.18,7.81 1.79,10.96 0.41,2.3 0.88,4.54 1.35,6.61 0.49,2.12 0.93,3.81 1.31,5.13l4.82 16.94 10.47 -15.61c0.6,-0.84 1.26,-1.85 1.96,-3.01l0 -0.03c0.59,-0.96 1.26,-2.15 2.02,-3.51 0.99,-1.78 1.71,-3.13 2.23,-4.13 1.04,-2.01 1.82,-3.53 2.41,-4.72l0 -0.03c2,-4.03 4.04,-8.6 5.95,-13.62 1.64,-4.31 3.25,-9.12 4.73,-14.42 1.29,-4.63 2.45,-9.56 3.41,-14.76 0.87,-4.71 1.57,-9.69 2.04,-14.92l0.07 -0.72c0.44,-5.25 0.37,-10.44 -0.11,-15.51 -0.54,-5.66 -1.6,-11.2 -3.06,-16.51 -1.59,-5.82 -3.64,-11.34 -5.96,-16.41z"/>
   <path class="fil2" d="M2787.57 656.91c14.56,-2.62 29.57,-6.23 43.71,-11.29 13.76,-5 26.69,-9.75 39.12,-14.41 11.74,-4.4 21.73,-8.24 29.68,-11.47l0.05 -0.04c1.49,-0.59 2.91,-1.16 4.28,-1.71 5.76,-2.87 11.46,-5.53 17.09,-8 -3,-1.48 -7.46,-3.4 -13.61,-5.35 -3.51,-1.05 -7.49,-2.03 -12,-2.88 -4.07,-0.76 -8.62,-1.43 -13.71,-1.94 -2.65,-0.25 -5.37,-0.38 -8.19,-0.44 -2.7,-0.05 -5.79,-0.03 -9.19,0.04l-0.02 -0c-3.28,0.05 -6.59,0.2 -9.9,0.48 -3.35,0.28 -6.88,0.71 -10.57,1.3l-0.11 0.02c-14.03,1.95 -28.81,6.06 -43.14,11.46 -16.01,6.03 -31.43,13.64 -44.66,21.63 -3.43,2.11 -6.52,4.04 -9.22,5.78 -2.67,1.71 -5.44,3.54 -8.31,5.48 -2.42,1.75 -4.74,3.46 -6.93,5.11 -2.37,1.78 -4.64,3.52 -6.77,5.19l-0.07 0.05c-3,2.28 -5.59,4.45 -7.74,6.36l-0.8 0.71 0.3 0.02 -0 0.02c3.29,0.2 7.6,0.24 12.74,0.12 5.11,-0.12 10.81,-0.41 16.89,-0.87 12.33,-1.11 26.42,-2.74 41.08,-5.38z"/>
   <path class="fil2" d="M2704.87 644.39c0.11,-3.3 0.46,-8.34 1.46,-14.91l0 -0.1c0.4,-3.06 0.94,-6.63 1.68,-10.78 0.7,-3.94 1.55,-8.16 2.59,-12.57l0.89 -3.99c0.74,-3.32 1.53,-6.84 2.55,-10.69l4.46 -16.51c4.4,-15.12 9.7,-31.12 14.53,-45.67 2.08,-6.3 4.07,-12.29 6.39,-19.54l0.02 -0.08c0.55,-1.8 1.29,-4.1 2.14,-6.68 0.98,-2.97 1.61,-4.86 2.05,-6.12l0.08 -0.24c0.47,-1.61 1.03,-3.43 1.65,-5.41 0.57,-1.81 1.12,-3.47 1.63,-4.99 0.59,-1.6 1.07,-2.98 1.48,-4.19l0.31 0.46c1.74,2.64 3.66,6.03 5.53,10.08 1.65,3.56 3.25,7.57 4.65,11.95l0.02 0.08c3.55,10.4 5.95,23.25 5.74,36.71 -0.17,11.16 -2.13,22.77 -6.73,33.77l0 0.02c-5.11,12.37 -11.33,23.13 -17.69,32.26 -6.36,9.12 -12.91,16.64 -18.67,22.52 -7.4,7.46 -13.42,12.2 -16.76,14.63zm66.58 -123.11c-1.11,-7.07 -2.76,-13.63 -4.73,-19.43 -0.72,-2.24 -1.5,-4.41 -2.3,-6.48 -0.91,-2.35 -1.82,-4.47 -2.69,-6.35 -0.99,-2.14 -1.99,-4.11 -2.96,-5.89 -1.06,-1.94 -2.13,-3.71 -3.17,-5.28l-9.41 -14.19 -6.08 17.48c-0.59,1.64 -1.15,3.24 -1.7,4.9l-0.83 2.58c-0.26,0.79 -0.08,0.28 -0.91,2.99l-0.74 2.44 -2.11 6.25 -1.19 3.69 -0.98 3.13c-1.69,5.27 -3.96,12.13 -6.33,19.27l0.03 0.01 -0.06 0.2 -0.03 0c-2.08,6.28 -4.27,12.87 -7.42,22.69 -2.47,7.68 -4.91,15.51 -7.17,23.27l-0.06 0.16 -4.46 16.54c-0.58,2.2 -1.05,4.08 -1.44,5.77l-2.04 9.13 -0.02 -0c-0.45,1.91 -0.94,4.17 -1.46,6.69 -0.55,2.7 -0.96,4.78 -1.23,6.33 -0.4,2.28 -0.73,4.24 -1,5.96l0.03 0c-0.3,1.96 -0.55,3.64 -0.74,5.11 -0.48,3.15 -0.84,6.27 -1.1,9.16 -0.24,2.69 -0.37,4.94 -0.43,6.71l-0.56 16.69 13.51 -9.82c2.02,-1.47 5.01,-3.78 8.82,-7.11 2.68,-2.34 5.7,-5.13 8.93,-8.39l0.06 -0.06c3.05,-3.11 6.27,-6.62 9.52,-10.5 3.2,-3.82 6.56,-8.16 9.98,-13.05 3.35,-4.81 6.66,-10.02 9.77,-15.61 3.13,-5.64 6.11,-11.71 8.79,-18.2 0.06,-0.14 0.64,-1.51 0.64,-1.57 2.11,-5.33 3.67,-10.74 4.74,-16.13 1.25,-6.28 1.87,-12.72 1.96,-19.11 0.1,-6.89 -0.43,-13.62 -1.43,-19.99z"/>
   <polygon class="fil1" points="3305.9,1445.85 3305.9,2519.55 3290.12,2519.55 3290.12,1445.85 "/>
   <polygon class="fil1" points="1666.05,1445.85 1666.05,2519.55 1650.27,2519.55 1650.27,1445.85 "/>
   <polygon class="fil1" points="1855.08,1396.77 1855.08,2568.62 1839.29,2568.62 1839.29,1396.77 "/>
   <polygon class="fil1" points="1957.69,1396.77 1957.69,2568.62 1941.91,2568.62 1941.91,1396.77 "/>
   <polygon class="fil1" points="2241.82,1396.77 2241.82,2032.66 2226.04,2032.66 2226.04,1396.77 "/>
   <polygon class="fil1" points="2343.74,1407.33 2343.74,2032.66 2327.96,2032.66 2327.96,1407.33 "/>
   <polygon class="fil1" points="2729.41,1396.77 2729.41,2032.66 2713.63,2032.66 2713.63,1396.77 "/>
   <polygon class="fil1" points="2627.49,1407.33 2627.49,2032.66 2611.7,2032.66 2611.7,1407.33 "/>
   <polygon class="fil1" points="3013.79,1396.77 3013.79,2568.62 2998.01,2568.62 2998.01,1396.77 "/>
   <polygon class="fil1" points="3116.41,1396.77 3116.41,2568.62 3100.63,2568.62 3100.63,1396.77 "/>
   <polygon class="fil0" points="2790.67,2219.39 2638.76,2219.39 2638.76,2182.97 2800.14,2182.97 2800.14,2219.39 "/>
   <polygon class="fil0" points="2635.2,2596.46 2810.78,2596.46 2810.78,2635.85 2626.92,2635.85 2626.92,2596.46 "/>
   <path class="fil0" d="M2666.59 2579.93l105.73 0 0 -360.54 -105.73 0 0 360.54zm112.83 16.53l-129.4 0 0 -393.59 138.88 0 0 393.59 -9.48 0z"/>
  </g>
  <path class="fil1" d="M1291.87 3563.72c0,6.94 0.42,12.19 1.47,15.77 0.84,3.57 2.73,6.1 5.68,7.36 2.73,1.26 7.14,2.1 12.82,2.31l0 8.41 -72.94 0 0 -8.41c6.3,-0.21 11.14,-1.05 14.29,-2.31 3.15,-1.05 5.25,-3.36 6.31,-6.73 1.05,-3.36 1.47,-8.41 1.47,-14.93l0 -97.11c0,-6.52 -0.42,-11.35 -1.47,-14.72 -1.05,-3.36 -2.94,-5.68 -5.68,-6.94 -2.73,-1.26 -6.94,-2.1 -12.61,-2.32l0 -8.41 72.52 0 0 8.41c-6.31,0.21 -10.93,0.84 -14.08,2.1 -3.16,1.47 -5.05,3.78 -6.1,7.36 -1.05,3.57 -1.68,8.83 -1.68,15.98l0 46.66 54.45 -58.44c3.15,-3.57 4.83,-6.52 4.83,-8.83 0,-1.47 -1.05,-2.73 -2.94,-3.57 -2.1,-0.84 -5.89,-1.26 -11.35,-1.26l0 -8.41 57.39 0 0 8.2c-3.99,0.21 -7.57,0.63 -10.51,1.47 -2.94,1.05 -6.1,2.73 -9.46,5.46 -3.36,2.73 -7.78,7.15 -13.45,13.03l-37.42 39.1 61.8 75.25c2.94,3.57 6.3,6.3 9.88,7.99 3.57,1.68 7.99,2.73 13.67,2.94l0 8.41 -77.78 0 0 -8.41c5.67,-0.21 9.88,-0.63 12.4,-1.68 2.52,-0.84 3.78,-2.1 3.78,-3.99 0,-1.47 -0.42,-2.94 -1.26,-4.41 -1.05,-1.47 -3.15,-4.21 -6.31,-8.2l-37.21 -45.83 -10.51 10.93 0 27.75z"/>
  <path id="_1" class="fil1" d="M1734.8 3599.66l-93.12 -132.64 -0.84 0 0 90.39c0,9.25 0.63,15.97 1.68,20.39 1.05,4.41 3.16,7.36 6.31,8.83 3.15,1.47 7.78,2.31 13.87,2.52l0 8.41 -62.43 0 0 -8.41c6.94,-0.21 11.98,-1.05 15.56,-2.52 3.36,-1.47 5.68,-4.2 6.94,-8.41 1.05,-4.21 1.68,-10.72 1.68,-19.34l0 -84.5c0,-7.99 -0.42,-14.08 -1.47,-18.29 -1.05,-4.21 -3.15,-7.15 -6.3,-9.04 -3.16,-1.68 -7.99,-2.73 -14.3,-2.94l0 -8.41 58.65 0 84.71 121.5 0.84 0 0 -81.35c0,-9.25 -0.42,-16.19 -1.47,-20.6 -1.05,-4.41 -3.15,-7.35 -6.3,-8.83 -3.15,-1.47 -7.78,-2.1 -14.08,-2.32l0 -8.41 62.43 0 0 8.41c-6.94,0.21 -11.98,0.84 -15.35,2.32 -3.57,1.47 -5.89,4.41 -6.94,8.62 -1.26,4.21 -1.89,10.72 -1.89,19.34l0 125.28 -28.17 0z"/>
  <path id="_2" class="fil1" d="M1832.35 3462.19c-2.73,-4.84 -5.25,-8.62 -7.57,-11.35 -2.31,-2.52 -4.62,-4.2 -7.14,-5.25 -2.73,-1.05 -5.89,-1.47 -9.46,-1.47l0 -8.41 70.63 0 0 8.41c-5.89,0 -10.09,0.63 -12.4,1.68 -2.31,1.05 -3.57,2.73 -3.57,5.04 0,1.47 0.42,3.16 1.26,5.05 0.84,1.89 2.1,4.62 4,7.99l30.06 57.39 0.84 0 26.49 -44.14c4.62,-7.78 7.78,-13.67 9.67,-17.66 1.89,-3.78 2.73,-6.73 2.73,-9.04 0,-2.31 -1.05,-3.99 -3.16,-5.05 -2.31,-0.84 -6.3,-1.26 -12.19,-1.26l0 -8.41 52.76 0 0 8.41c-3.15,0 -5.89,0.42 -8.41,1.47 -2.52,1.05 -5.05,2.94 -7.78,5.68 -2.73,2.73 -5.67,6.73 -9.04,11.98 -3.57,5.25 -7.78,11.98 -12.61,20.18l-30.69 52.55 0 21.44c0,9.46 0.63,16.4 1.89,20.81 1.05,4.41 3.36,7.36 6.52,8.83 3.15,1.47 7.57,2.1 13.45,2.1l0 8.41 -74.83 0 0 -8.41c5.89,0 10.51,-0.63 13.67,-2.1 3.15,-1.47 5.25,-4.21 6.52,-8.62 1.26,-4.2 1.89,-10.72 1.89,-19.55l0 -19.34 -43.51 -77.36z"/>
  <path id="_3" class="fil1" d="M1997.47 3597.56l-3.16 -53.6 8.2 0c1.89,13.24 7.36,23.54 16.19,31.32 8.62,7.78 19.34,11.56 31.95,11.56 10.51,0 18.92,-2.52 25.43,-7.36 6.52,-4.84 9.67,-10.93 9.67,-18.71 0,-4.41 -1.05,-8.2 -2.94,-11.35 -2.1,-3.15 -5.88,-6.1 -11.56,-9.25 -5.68,-2.94 -14.08,-6.52 -25.02,-10.51 -16.19,-6.1 -28.38,-13.46 -36.15,-22.07 -7.99,-8.41 -11.98,-18.29 -11.98,-29.43 0,-8.83 2.31,-16.61 6.73,-23.33 4.41,-6.52 10.51,-11.77 18.29,-15.56 7.78,-3.78 16.61,-5.68 26.91,-5.68 13.87,0 26.91,4.41 38.89,13.45l3.78 -10.51 5.05 0 2.31 45.4 -8.2 0c-3.36,-11.56 -8.62,-20.39 -15.77,-26.48 -7.14,-6.1 -15.34,-9.04 -24.8,-9.04 -8.62,0 -15.56,2.1 -21.02,6.3 -5.47,4.41 -8.2,9.88 -8.2,16.61 0,4 1.05,7.36 2.94,10.09 1.89,2.94 5.25,5.68 10.51,8.41 5.25,2.73 12.61,6.1 22.28,9.67 19.55,7.36 33.63,15.35 42.25,23.75 8.62,8.62 12.82,18.71 12.82,30.27 0,9.46 -2.73,17.66 -7.99,25.02 -5.25,7.36 -12.61,13.03 -22.07,17.03 -9.46,3.99 -20.18,6.1 -32.58,6.1 -8.2,0 -15.77,-1.05 -22.7,-3.57 -6.94,-2.31 -13.87,-5.89 -20.81,-11.14l-4.21 12.61 -5.04 0z"/>
  <path id="_4" class="fil1" d="M2305.53 3563.72c0,7.15 0.63,12.4 1.68,15.98 1.05,3.57 3.15,6.1 6.31,7.15 3.15,1.26 7.78,2.1 14.08,2.31l0 8.41 -77.15 0 0 -8.41c6.94,-0.21 11.98,-1.05 15.56,-2.31 3.36,-1.05 5.67,-3.36 6.94,-6.73 1.05,-3.36 1.68,-8.41 1.68,-14.93l0 -43.93 -77.99 0 0 42.46c0,7.15 0.63,12.4 1.68,15.98 1.05,3.57 3.36,6.1 6.94,7.15 3.36,1.26 8.41,2.1 15.34,2.31l0 8.41 -76.93 0 0 -8.41c6.3,-0.21 11.14,-1.05 14.29,-2.31 3.15,-1.05 5.25,-3.36 6.31,-6.73 1.05,-3.36 1.47,-8.41 1.47,-14.93l0 -97.11c0,-6.52 -0.42,-11.56 -1.26,-14.92 -1.05,-3.16 -2.94,-5.47 -5.68,-6.73 -2.73,-1.26 -7.14,-2.1 -12.82,-2.32l0 -8.41 72.52 0 0 8.41c-6.31,0.21 -10.93,0.84 -14.08,2.1 -3.16,1.47 -5.05,3.78 -6.1,7.36 -1.05,3.57 -1.68,8.83 -1.68,15.98l0 38.68 77.99 0 0 -40.15c0,-6.52 -0.42,-11.56 -1.47,-14.92 -1.05,-3.16 -3.15,-5.47 -6.3,-6.73 -3.16,-1.26 -7.99,-2.1 -14.3,-2.32l0 -8.41 72.73 0 0 8.41c-5.67,0.21 -9.88,0.84 -12.61,2.1 -2.94,1.47 -4.83,3.78 -5.67,7.36 -1.05,3.57 -1.47,8.83 -1.47,15.98l0 94.17z"/>
  <path id="_5" class="fil1" d="M2452.9 3597.56l-3.16 -53.6 8.2 0c1.89,13.24 7.36,23.54 16.19,31.32 8.62,7.78 19.34,11.56 31.95,11.56 10.51,0 18.92,-2.52 25.43,-7.36 6.52,-4.84 9.67,-10.93 9.67,-18.71 0,-4.41 -1.05,-8.2 -2.94,-11.35 -2.1,-3.15 -5.88,-6.1 -11.56,-9.25 -5.68,-2.94 -14.08,-6.52 -25.02,-10.51 -16.19,-6.1 -28.38,-13.46 -36.15,-22.07 -7.99,-8.41 -11.98,-18.29 -11.98,-29.43 0,-8.83 2.31,-16.61 6.73,-23.33 4.41,-6.52 10.51,-11.77 18.29,-15.56 7.78,-3.78 16.61,-5.68 26.91,-5.68 13.87,0 26.91,4.41 38.89,13.45l3.78 -10.51 5.05 0 2.31 45.4 -8.2 0c-3.36,-11.56 -8.62,-20.39 -15.77,-26.48 -7.14,-6.1 -15.34,-9.04 -24.8,-9.04 -8.62,0 -15.56,2.1 -21.02,6.3 -5.47,4.41 -8.2,9.88 -8.2,16.61 0,4 1.05,7.36 2.94,10.09 1.89,2.94 5.25,5.68 10.51,8.41 5.25,2.73 12.61,6.1 22.28,9.67 19.55,7.36 33.63,15.35 42.25,23.75 8.62,8.62 12.82,18.71 12.82,30.27 0,9.46 -2.73,17.66 -7.99,25.02 -5.25,7.36 -12.61,13.03 -22.07,17.03 -9.46,3.99 -20.18,6.1 -32.58,6.1 -8.2,0 -15.77,-1.05 -22.7,-3.57 -6.94,-2.31 -13.87,-5.89 -20.81,-11.14l-4.21 12.61 -5.04 0z"/>
  <path id="_6" class="fil1" d="M2571.25 3597.56l0 -8.41c6.73,-0.63 11.77,-2.31 15.35,-4.63 3.57,-2.31 6.52,-6.3 8.83,-12.4l55.28 -138.53 15.56 0 50.24 122.76c2.94,7.14 5.46,12.82 7.57,16.81 2.1,4.21 4.21,7.36 6.52,9.46 2.31,2.1 4.83,3.57 7.99,4.41 2.94,0.84 6.73,1.47 11.56,1.89l0 8.62 -79.46 0 0 -8.62c6.73,-0.21 11.56,-1.05 14.51,-2.1 2.94,-1.05 4.41,-3.36 4.41,-6.73 0,-1.89 -0.42,-4.63 -1.47,-7.78 -1.05,-3.15 -2.31,-6.73 -4,-11.14l-4.83 -12.61 -59.49 0c-6.52,14.92 -9.88,25.22 -9.88,30.9 0,4.2 1.68,6.94 4.84,7.99 3.15,1.05 7.78,1.68 14.08,1.68l0 8.41 -57.6 0zm53.39 -61.59l50.03 0 -24.18 -63.69 -0.84 0 -25.02 63.69z"/>
  <path id="_7" class="fil1" d="M2903.08 3435.7l2.1 46.24 -9.04 0c-0.63,-9.25 -2.1,-16.4 -4.83,-21.65 -2.73,-5.05 -6.73,-8.62 -11.56,-10.72 -5.04,-1.89 -11.35,-2.94 -18.92,-2.94 -7.36,0 -12.61,0.21 -16.19,0.42 -3.57,0.42 -6.1,1.05 -7.14,2.1 -1.05,1.05 -1.68,2.31 -1.68,4l0 110.15c0,6.1 0.63,10.93 1.89,14.5 1.26,3.78 3.99,6.52 7.99,8.2 3.99,1.89 10.3,2.94 18.5,3.16l0 8.41 -88.07 0 0 -8.41c8.41,-0.21 14.72,-1.26 18.71,-3.16 3.99,-1.68 6.73,-4.41 8.2,-8.2 1.26,-3.57 1.89,-8.41 1.89,-14.5l0 -110.15c0,-1.68 -0.42,-2.94 -1.47,-4 -1.05,-1.05 -2.94,-1.68 -6.1,-2.1 -3.15,-0.21 -7.78,-0.42 -14.08,-0.42 -5.05,0 -9.88,0.21 -14.51,0.84 -4.62,0.63 -8.62,1.89 -12.19,3.99 -3.57,2.31 -6.31,5.68 -8.41,10.51 -2.1,4.84 -3.36,11.35 -3.57,19.97l-8.2 0 2.1 -46.24 164.59 0z"/>
  <path id="_8" class="fil1" d="M2920.23 3597.56l0 -8.41c6.31,-0.21 11.14,-1.05 14.3,-2.31 3.15,-1.05 5.25,-3.36 6.3,-6.73 1.05,-3.36 1.68,-8.41 1.68,-14.93l0 -97.11c0,-6.52 -0.42,-11.56 -1.26,-14.92 -0.84,-3.16 -2.52,-5.47 -5.05,-6.73 -2.73,-1.26 -6.52,-2.1 -11.56,-2.32l0 -8.41 67.48 0c21.02,0 37.21,3.36 48.77,10.3 11.56,6.94 17.24,16.61 17.24,29.01 0,16.61 -11.98,28.38 -35.94,35.32l0 0.84c10.3,0 19.34,1.89 26.91,5.67 7.36,3.78 13.24,9.04 17.45,15.56 4,6.52 6.1,14.08 6.1,22.49 0,7.14 -1.68,13.45 -5.05,18.71 -3.57,5.25 -8.41,9.88 -14.92,13.45 -12.4,6.94 -29.64,10.51 -51.5,10.51l-80.93 0zm65.59 -91.44c6.3,0 11.77,-0.63 16.61,-1.89 4.62,-1.05 8.41,-2.73 11.56,-5.04 6.73,-4.63 10.09,-11.77 10.09,-21.65 0,-10.3 -2.52,-17.65 -7.57,-22.28 -5.05,-4.41 -13.24,-6.73 -24.38,-6.73l-14.92 0c-2.52,0 -3.78,1.26 -3.78,3.57l0 54.02 12.4 0zm16.81 78.62c22.49,0 33.84,-10.09 33.84,-30.48 0,-12.4 -4,-21.65 -12.19,-27.33 -4.2,-2.94 -9.67,-5.05 -16.4,-6.31 -6.73,-1.26 -14.92,-1.89 -24.38,-1.89l-10.09 0 0 42.04c0,8.62 2.31,14.72 6.73,18.29 4.41,3.78 11.98,5.68 22.49,5.68z"/>
  <path id="_9" class="fil1" d="M3080.54 3597.56l0 -8.41c6.73,-0.63 11.77,-2.31 15.35,-4.63 3.57,-2.31 6.52,-6.3 8.83,-12.4l55.28 -138.53 15.56 0 50.24 122.76c2.94,7.14 5.46,12.82 7.57,16.81 2.1,4.21 4.21,7.36 6.52,9.46 2.31,2.1 4.83,3.57 7.99,4.41 2.94,0.84 6.73,1.47 11.56,1.89l0 8.62 -79.46 0 0 -8.62c6.73,-0.21 11.56,-1.05 14.51,-2.1 2.94,-1.05 4.41,-3.36 4.41,-6.73 0,-1.89 -0.42,-4.63 -1.47,-7.78 -1.05,-3.15 -2.31,-6.73 -4,-11.14l-4.83 -12.61 -59.49 0c-6.52,14.92 -9.88,25.22 -9.88,30.9 0,4.2 1.68,6.94 4.84,7.99 3.15,1.05 7.78,1.68 14.08,1.68l0 8.41 -57.6 0zm53.39 -61.59l50.03 0 -24.18 -63.69 -0.84 0 -25.02 63.69z"/>
  <path id="_10" class="fil1" d="M3259.01 3462.19c-2.73,-4.84 -5.25,-8.62 -7.57,-11.35 -2.31,-2.52 -4.62,-4.2 -7.14,-5.25 -2.73,-1.05 -5.89,-1.47 -9.46,-1.47l0 -8.41 70.63 0 0 8.41c-5.89,0 -10.09,0.63 -12.4,1.68 -2.31,1.05 -3.57,2.73 -3.57,5.04 0,1.47 0.42,3.16 1.26,5.05 0.84,1.89 2.1,4.62 4,7.99l30.06 57.39 0.84 0 26.49 -44.14c4.62,-7.78 7.78,-13.67 9.67,-17.66 1.89,-3.78 2.73,-6.73 2.73,-9.04 0,-2.31 -1.05,-3.99 -3.16,-5.05 -2.31,-0.84 -6.3,-1.26 -12.19,-1.26l0 -8.41 52.76 0 0 8.41c-3.15,0 -5.89,0.42 -8.41,1.47 -2.52,1.05 -5.05,2.94 -7.78,5.68 -2.73,2.73 -5.67,6.73 -9.04,11.98 -3.57,5.25 -7.78,11.98 -12.61,20.18l-30.69 52.55 0 21.44c0,9.46 0.63,16.4 1.89,20.81 1.05,4.41 3.36,7.36 6.52,8.83 3.15,1.47 7.57,2.1 13.45,2.1l0 8.41 -74.83 0 0 -8.41c5.89,0 10.51,-0.63 13.67,-2.1 3.15,-1.47 5.25,-4.21 6.52,-8.62 1.26,-4.2 1.89,-10.72 1.89,-19.55l0 -19.34 -43.51 -77.36z"/>
  <path id="_11" class="fil1" d="M3466.24 3454.62l0 53.39c9.04,0 16.19,-0.21 21.65,-0.84 5.47,-0.63 9.67,-1.68 12.83,-3.57 2.94,-1.68 5.04,-4.2 6.51,-7.78 1.26,-3.36 2.1,-7.78 2.73,-13.45l7.78 0 0 61.59 -7.78 0c-0.84,-5.68 -1.89,-10.3 -3.36,-13.67 -1.47,-3.36 -3.79,-5.88 -6.73,-7.57 -2.94,-1.47 -7.15,-2.52 -12.4,-3.15 -5.25,-0.63 -12.4,-0.84 -21.23,-0.84l0 43.3c0,6.1 1.05,10.72 3.36,14.29 2.31,3.57 6.1,5.89 11.35,7.36 5.25,1.47 12.19,2.31 21.23,2.31 10.72,0 19.13,-1.05 25.64,-3.15 6.31,-2.1 11.14,-5.89 14.72,-11.14 3.57,-5.25 6.3,-12.82 8.2,-22.28l8.41 0 -3.36 48.14 -142.52 0 0 -8.41c6.3,-0.21 11.14,-1.05 14.29,-2.31 3.15,-1.05 5.25,-3.36 6.31,-6.73 1.05,-3.36 1.47,-8.41 1.47,-14.93l0 -97.11c0,-6.52 -0.42,-11.56 -1.47,-14.92 -1.05,-3.16 -2.94,-5.47 -5.68,-6.73 -2.73,-1.26 -6.94,-2.1 -12.61,-2.32l0 -8.41 132.85 0 1.47 41.2 -9.04 0c-1.05,-7.78 -3.16,-13.87 -6.1,-18.29 -2.94,-4.41 -7.35,-7.36 -13.03,-9.25 -5.89,-1.68 -13.87,-2.52 -23.75,-2.52l-23.75 0c-3.57,0 -5.68,0.42 -6.52,1.26 -1.05,1.05 -1.47,3.15 -1.47,6.52z"/>
  <path id="_12" class="fil1" d="M3630.54 3469.33l33.63 92.07 27.33 -70c3.57,-9.25 6.3,-16.4 7.99,-21.23 1.68,-4.84 2.73,-8.62 3.36,-11.14 0.63,-2.52 0.84,-4.84 0.84,-6.73 0,-3.36 -1.26,-5.67 -3.78,-6.73 -2.52,-1.05 -7.57,-1.47 -15.13,-1.47l0 -8.41 59.7 0 0 8.41c-11.56,0 -19.76,5.68 -24.17,17.03l-55.29 138.53 -15.56 0 -50.24 -122.76c-3.57,-8.83 -6.94,-15.56 -9.88,-20.39 -3.15,-4.62 -6.52,-7.78 -10.09,-9.67 -3.57,-1.68 -8.2,-2.52 -13.67,-2.52l0 -8.62 79.46 0 0 8.62c-7.36,0.21 -12.19,0.84 -14.72,1.89 -2.73,1.26 -3.99,3.36 -3.99,6.52 0,1.89 0.42,3.99 1.05,6.73 0.63,2.73 1.68,6.1 3.16,9.88z"/>
  <path id="_13" class="fil1" d="M1415.57 3597.56l0 -8.41c6.73,-0.63 11.77,-2.31 15.35,-4.63 3.57,-2.31 6.52,-6.3 8.83,-12.4l55.28 -138.53 15.56 0 50.24 122.76c2.94,7.14 5.46,12.82 7.57,16.81 2.1,4.21 4.21,7.36 6.52,9.46 2.31,2.1 4.83,3.57 7.99,4.41 2.94,0.84 6.73,1.47 11.56,1.89l0 8.62 -79.46 0 0 -8.62c6.73,-0.21 11.56,-1.05 14.51,-2.1 2.94,-1.05 4.41,-3.36 4.41,-6.73 0,-1.89 -0.42,-4.63 -1.47,-7.78 -1.05,-3.15 -2.31,-6.73 -4,-11.14l-4.83 -12.61 -59.49 0c-6.52,14.92 -9.88,25.22 -9.88,30.9 0,4.2 1.68,6.94 4.84,7.99 3.15,1.05 7.78,1.68 14.08,1.68l0 8.41 -57.6 0zm53.39 -61.59l50.03 0 -24.18 -63.69 -0.84 0 -25.02 63.69z"/>
  <path id="_14" class="fil1" d="M0.42 3928l0 -8.41c6.31,-0.21 11.14,-1.05 14.29,-2.52 3.16,-1.47 5.26,-4.2 6.31,-8.41 1.05,-4.21 1.47,-10.72 1.47,-19.34l0 -84.5c0,-7.99 -0.42,-14.08 -1.26,-18.29 -1.05,-4.21 -2.94,-7.15 -5.67,-9.04 -2.94,-1.68 -7.36,-2.73 -13.03,-2.94l0 -8.41 70.84 0 0 8.41c-5.67,0.21 -10.09,1.26 -12.82,2.94 -2.94,1.89 -4.83,4.84 -5.68,9.04 -1.05,4.2 -1.47,10.3 -1.47,18.29l0 84.5c0,8.62 0.63,15.13 1.68,19.34 1.05,4.21 3.15,6.94 6.3,8.41 3.16,1.47 7.78,2.31 14.08,2.52l0 8.41 -75.04 0z"/>
  <path id="_15" class="fil1" d="M226.67 3930.1l-93.12 -132.64 -0.84 0 0 90.39c0,9.25 0.63,15.97 1.68,20.39 1.05,4.41 3.16,7.36 6.31,8.83 3.15,1.47 7.78,2.31 13.87,2.52l0 8.41 -62.43 0 0 -8.41c6.94,-0.21 11.98,-1.05 15.56,-2.52 3.36,-1.47 5.68,-4.2 6.94,-8.41 1.05,-4.21 1.68,-10.72 1.68,-19.34l0 -84.5c0,-7.99 -0.42,-14.08 -1.47,-18.29 -1.05,-4.21 -3.15,-7.15 -6.3,-9.04 -3.16,-1.68 -7.99,-2.73 -14.3,-2.94l0 -8.41 58.65 0 84.71 121.5 0.84 0 0 -81.35c0,-9.25 -0.42,-16.19 -1.47,-20.6 -1.05,-4.41 -3.15,-7.35 -6.3,-8.83 -3.15,-1.47 -7.78,-2.1 -14.08,-2.32l0 -8.41 62.43 0 0 8.41c-6.94,0.21 -11.98,0.84 -15.35,2.32 -3.57,1.47 -5.89,4.41 -6.94,8.62 -1.26,4.21 -1.89,10.72 -1.89,19.34l0 125.28 -28.17 0z"/>
  <path id="_16" class="fil1" d="M299.67 3928l-3.16 -53.6 8.2 0c1.89,13.24 7.36,23.54 16.19,31.32 8.62,7.78 19.34,11.56 31.95,11.56 10.51,0 18.92,-2.52 25.43,-7.36 6.52,-4.84 9.67,-10.93 9.67,-18.71 0,-4.41 -1.05,-8.2 -2.94,-11.35 -2.1,-3.15 -5.88,-6.1 -11.56,-9.25 -5.68,-2.94 -14.08,-6.52 -25.02,-10.51 -16.19,-6.1 -28.38,-13.46 -36.15,-22.07 -7.99,-8.41 -11.98,-18.29 -11.98,-29.43 0,-8.83 2.31,-16.61 6.73,-23.33 4.41,-6.52 10.51,-11.77 18.29,-15.56 7.78,-3.78 16.61,-5.68 26.91,-5.68 13.87,0 26.91,4.41 38.89,13.45l3.78 -10.51 5.05 0 2.31 45.4 -8.2 0c-3.36,-11.56 -8.62,-20.39 -15.77,-26.48 -7.14,-6.1 -15.34,-9.04 -24.8,-9.04 -8.62,0 -15.56,2.1 -21.02,6.3 -5.47,4.41 -8.2,9.88 -8.2,16.61 0,4 1.05,7.36 2.94,10.09 1.89,2.94 5.25,5.68 10.51,8.41 5.25,2.73 12.61,6.1 22.28,9.67 19.55,7.36 33.63,15.35 42.25,23.75 8.62,8.62 12.82,18.71 12.82,30.27 0,9.46 -2.73,17.66 -7.99,25.02 -5.25,7.36 -12.61,13.03 -22.07,17.03 -9.46,3.99 -20.18,6.1 -32.58,6.1 -8.2,0 -15.77,-1.05 -22.7,-3.57 -6.94,-2.31 -13.87,-5.89 -20.81,-11.14l-4.21 12.61 -5.04 0z"/>
  <path id="_17" class="fil1" d="M594.86 3766.14l2.1 46.24 -9.04 0c-0.63,-9.25 -2.1,-16.4 -4.83,-21.65 -2.73,-5.05 -6.73,-8.62 -11.56,-10.72 -5.04,-1.89 -11.35,-2.94 -18.92,-2.94 -7.36,0 -12.61,0.21 -16.19,0.42 -3.57,0.42 -6.1,1.05 -7.14,2.1 -1.05,1.05 -1.68,2.31 -1.68,4l0 110.15c0,6.1 0.63,10.93 1.89,14.5 1.26,3.78 3.99,6.52 7.99,8.2 3.99,1.89 10.3,2.94 18.5,3.16l0 8.41 -88.07 0 0 -8.41c8.41,-0.21 14.72,-1.26 18.71,-3.16 3.99,-1.68 6.73,-4.41 8.2,-8.2 1.26,-3.57 1.89,-8.41 1.89,-14.5l0 -110.15c0,-1.68 -0.42,-2.94 -1.47,-4 -1.05,-1.05 -2.94,-1.68 -6.1,-2.1 -3.15,-0.21 -7.78,-0.42 -14.08,-0.42 -5.05,0 -9.88,0.21 -14.51,0.84 -4.62,0.63 -8.62,1.89 -12.19,3.99 -3.57,2.31 -6.31,5.68 -8.41,10.51 -2.1,4.84 -3.36,11.35 -3.57,19.97l-8.2 0 2.1 -46.24 164.59 0z"/>
  <path id="_18" class="fil1" d="M609.85 3928l0 -8.41c6.31,-0.21 11.14,-1.05 14.29,-2.52 3.16,-1.47 5.26,-4.2 6.31,-8.41 1.05,-4.21 1.47,-10.72 1.47,-19.34l0 -84.5c0,-7.99 -0.42,-14.08 -1.26,-18.29 -1.05,-4.21 -2.94,-7.15 -5.67,-9.04 -2.94,-1.68 -7.36,-2.73 -13.03,-2.94l0 -8.41 70.84 0 0 8.41c-5.67,0.21 -10.09,1.26 -12.82,2.94 -2.94,1.89 -4.83,4.84 -5.68,9.04 -1.05,4.2 -1.47,10.3 -1.47,18.29l0 84.5c0,8.62 0.63,15.13 1.68,19.34 1.05,4.21 3.15,6.94 6.3,8.41 3.16,1.47 7.78,2.31 14.08,2.52l0 8.41 -75.04 0z"/>
  <path id="_19" class="fil1" d="M864.47 3766.14l2.1 46.24 -9.04 0c-0.63,-9.25 -2.1,-16.4 -4.83,-21.65 -2.73,-5.05 -6.73,-8.62 -11.56,-10.72 -5.04,-1.89 -11.35,-2.94 -18.92,-2.94 -7.36,0 -12.61,0.21 -16.19,0.42 -3.57,0.42 -6.1,1.05 -7.14,2.1 -1.05,1.05 -1.68,2.31 -1.68,4l0 110.15c0,6.1 0.63,10.93 1.89,14.5 1.26,3.78 3.99,6.52 7.99,8.2 3.99,1.89 10.3,2.94 18.5,3.16l0 8.41 -88.07 0 0 -8.41c8.41,-0.21 14.72,-1.26 18.71,-3.16 3.99,-1.68 6.73,-4.41 8.2,-8.2 1.26,-3.57 1.89,-8.41 1.89,-14.5l0 -110.15c0,-1.68 -0.42,-2.94 -1.47,-4 -1.05,-1.05 -2.94,-1.68 -6.1,-2.1 -3.15,-0.21 -7.78,-0.42 -14.08,-0.42 -5.05,0 -9.88,0.21 -14.51,0.84 -4.62,0.63 -8.62,1.89 -12.19,3.99 -3.57,2.31 -6.31,5.68 -8.41,10.51 -2.1,4.84 -3.36,11.35 -3.57,19.97l-8.2 0 2.1 -46.24 164.59 0z"/>
  <path id="_20" class="fil1" d="M1031.01 3818.27l0 44.56c0,15.76 -2.31,28.59 -6.94,38.47 -4.84,9.88 -12.19,17.24 -22.07,21.86 -9.88,4.63 -22.91,6.94 -39.1,6.94 -22.49,0 -39.1,-4.84 -49.4,-14.29 -10.51,-9.46 -15.76,-24.38 -15.76,-45.2l0 -57.6c0,-7.36 0,-13.03 -0.21,-17.45 -0.21,-4.41 -0.63,-7.78 -1.26,-10.3 -0.63,-2.31 -1.26,-4.21 -2.31,-5.68 -1.26,-1.89 -3.16,-3.36 -5.47,-3.99 -2.31,-0.63 -6.1,-1.05 -10.93,-1.05l0 -8.41 75.46 0 0 8.41c-5.89,0 -10.3,0.21 -13.03,0.84 -2.73,0.63 -5.05,1.89 -6.52,3.78 -1.89,2.31 -3.15,5.67 -3.78,10.3 -0.63,4.83 -1.05,12.61 -1.05,23.54l0 55.07c0,15.77 3.36,27.54 10.3,35.32 6.94,7.78 17.24,11.56 31.32,11.56 28.8,0 43.31,-15.97 43.31,-48.13l0 -48.56c0,-11.56 -0.42,-20.18 -1.26,-25.86 -0.84,-5.46 -2.52,-9.46 -4.83,-12.19 -1.89,-1.89 -4.21,-3.36 -7.36,-4.41 -3.16,-0.84 -7.57,-1.26 -13.03,-1.26l0 -8.41 68.11 0 0 8.41c-5.25,0 -9.25,0.42 -11.98,1.05 -2.73,0.84 -5.05,2.31 -6.52,4.2 -2.1,2.73 -3.57,6.73 -4.41,12.4 -0.84,5.68 -1.26,14.51 -1.26,26.07z"/>
  <path id="_21" class="fil1" d="M1228.88 3766.14l2.1 46.24 -9.04 0c-0.63,-9.25 -2.1,-16.4 -4.83,-21.65 -2.73,-5.05 -6.73,-8.62 -11.56,-10.72 -5.04,-1.89 -11.35,-2.94 -18.92,-2.94 -7.36,0 -12.61,0.21 -16.19,0.42 -3.57,0.42 -6.1,1.05 -7.14,2.1 -1.05,1.05 -1.68,2.31 -1.68,4l0 110.15c0,6.1 0.63,10.93 1.89,14.5 1.26,3.78 3.99,6.52 7.99,8.2 3.99,1.89 10.3,2.94 18.5,3.16l0 8.41 -88.07 0 0 -8.41c8.41,-0.21 14.72,-1.26 18.71,-3.16 3.99,-1.68 6.73,-4.41 8.2,-8.2 1.26,-3.57 1.89,-8.41 1.89,-14.5l0 -110.15c0,-1.68 -0.42,-2.94 -1.47,-4 -1.05,-1.05 -2.94,-1.68 -6.1,-2.1 -3.15,-0.21 -7.78,-0.42 -14.08,-0.42 -5.05,0 -9.88,0.21 -14.51,0.84 -4.62,0.63 -8.62,1.89 -12.19,3.99 -3.57,2.31 -6.31,5.68 -8.41,10.51 -2.1,4.84 -3.36,11.35 -3.57,19.97l-8.2 0 2.1 -46.24 164.59 0z"/>
  <path id="_22" class="fil1" d="M1296.63 3785.06l0 53.39c9.04,0 16.19,-0.21 21.65,-0.84 5.47,-0.63 9.67,-1.68 12.83,-3.57 2.94,-1.68 5.04,-4.2 6.51,-7.78 1.26,-3.36 2.1,-7.78 2.73,-13.45l7.78 0 0 61.59 -7.78 0c-0.84,-5.68 -1.89,-10.3 -3.36,-13.67 -1.47,-3.36 -3.79,-5.88 -6.73,-7.57 -2.94,-1.47 -7.15,-2.52 -12.4,-3.15 -5.25,-0.63 -12.4,-0.84 -21.23,-0.84l0 43.3c0,6.1 1.05,10.72 3.36,14.29 2.31,3.57 6.1,5.89 11.35,7.36 5.25,1.47 12.19,2.31 21.23,2.31 10.72,0 19.13,-1.05 25.64,-3.15 6.31,-2.1 11.14,-5.89 14.72,-11.14 3.57,-5.25 6.3,-12.82 8.2,-22.28l8.41 0 -3.36 48.14 -142.52 0 0 -8.41c6.3,-0.21 11.14,-1.05 14.29,-2.31 3.15,-1.05 5.25,-3.36 6.31,-6.73 1.05,-3.36 1.47,-8.41 1.47,-14.93l0 -97.11c0,-6.52 -0.42,-11.56 -1.47,-14.92 -1.05,-3.16 -2.94,-5.47 -5.68,-6.73 -2.73,-1.26 -6.94,-2.1 -12.61,-2.32l0 -8.41 132.85 0 1.47 41.2 -9.04 0c-1.05,-7.78 -3.16,-13.87 -6.1,-18.29 -2.94,-4.41 -7.35,-7.36 -13.03,-9.25 -5.89,-1.68 -13.87,-2.52 -23.75,-2.52l-23.75 0c-3.57,0 -5.68,0.42 -6.52,1.26 -1.05,1.05 -1.47,3.15 -1.47,6.52z"/>
  <path id="_23" class="fil1" d="M1582.78 3764.04c12.61,0 24.38,2.1 35.31,6.31 10.72,4.41 20.39,10.3 28.59,17.87 8.2,7.78 14.5,16.61 19.13,26.91 4.41,10.3 6.73,21.23 6.73,33.21 0,11.35 -2.31,22.07 -6.94,31.95 -4.62,9.88 -10.93,18.71 -19.13,26.07 -8.2,7.36 -17.87,13.24 -28.59,17.45 -10.93,4.21 -22.7,6.31 -35.1,6.31 -12.4,0 -24.18,-2.1 -34.89,-6.31 -10.93,-4.2 -20.39,-10.09 -28.59,-17.45 -8.2,-7.36 -14.72,-16.19 -19.34,-26.07 -4.62,-9.88 -6.94,-20.6 -6.94,-31.95 0,-11.98 2.31,-22.91 6.94,-33.21 4.41,-10.3 10.93,-19.13 19.13,-26.91 8.2,-7.57 17.66,-13.45 28.59,-17.87 10.72,-4.21 22.49,-6.31 35.11,-6.31zm0 152.4c10.93,0 20.39,-2.73 28.38,-8.2 7.78,-5.46 13.87,-13.24 18.29,-23.54 4.41,-10.09 6.52,-22.07 6.52,-35.73 0,-14.51 -2.1,-27.12 -6.3,-37.84 -4.41,-10.72 -10.51,-18.92 -18.5,-24.81 -7.99,-5.67 -17.45,-8.62 -28.38,-8.62 -10.93,0 -20.39,2.94 -28.17,8.62 -7.99,5.89 -14.08,14.08 -18.5,24.81 -4.41,10.72 -6.52,23.33 -6.52,37.84 0,13.66 2.1,25.64 6.52,35.73 4.41,10.3 10.51,18.08 18.5,23.54 7.78,5.47 17.24,8.2 28.17,8.2z"/>
  <path id="_24" class="fil1" d="M1742.39 3894.15c0,7.15 0.63,12.4 2.1,15.98 1.47,3.57 4.41,6.1 8.83,7.15 4.41,1.26 10.93,2.1 19.76,2.31l0 8.41 -83.66 0 0 -8.41c6.3,-0.21 11.14,-1.05 14.29,-2.31 3.15,-1.05 5.25,-3.36 6.31,-6.73 1.05,-3.36 1.47,-8.41 1.47,-14.93l0 -97.11c0,-6.52 -0.42,-11.56 -1.47,-14.92 -1.05,-3.16 -2.94,-5.47 -5.68,-6.73 -2.73,-1.26 -6.94,-2.1 -12.61,-2.32l0 -8.41 128.65 0 2.52 44.35 -8.83 0c-1.05,-7.99 -2.94,-14.29 -5.47,-19.13 -2.73,-4.83 -6.51,-8.2 -11.77,-10.3 -5.26,-2.1 -12.61,-3.15 -21.65,-3.15l-29.01 0c-2.52,0 -3.78,1.26 -3.78,3.57l0 60.75c11.35,0 19.97,-0.63 26.07,-2.1 6.1,-1.47 10.3,-4 12.83,-7.99 2.52,-3.99 4.2,-9.67 4.83,-17.24l7.78 0 0 65.79 -7.78 0c-0.84,-5.89 -2.1,-10.72 -3.57,-14.29 -1.68,-3.57 -3.99,-6.3 -7.14,-8.2 -3.16,-1.89 -7.36,-3.15 -12.61,-3.78 -5.25,-0.63 -12.19,-1.05 -20.39,-1.05l0 40.78z"/>
  <path id="_25" class="fil1" d="M1999.53 3930.1c-16.82,0 -31.32,-3.36 -43.51,-9.88 -12.4,-6.52 -21.86,-15.77 -28.59,-27.75 -6.73,-11.98 -10.09,-26.07 -10.09,-42.46 0,-17.03 3.57,-32.16 10.72,-44.99 7.14,-12.82 17.03,-22.91 29.85,-30.27 12.82,-7.15 27.54,-10.72 44.14,-10.72 8.62,0 17.03,1.26 24.81,3.57 7.78,2.31 16.4,6.31 25.43,11.56l3.99 -13.03 7.57 0 0 53.18 -10.51 0c-2.73,-13.24 -8.2,-23.34 -16.81,-30.69 -8.62,-7.36 -19.13,-10.93 -31.95,-10.93 -15.98,0 -28.38,6.3 -37.42,18.71 -9.04,12.4 -13.45,29.85 -13.45,51.92 0,21.65 4.41,38.47 13.24,50.03 8.62,11.77 21.23,17.66 37.63,17.66 11.77,0 21.02,-3.15 27.75,-9.25 6.73,-6.1 10.09,-14.5 10.09,-25.22 0,-6.51 -1.68,-11.14 -5.05,-14.29 -3.57,-3.15 -9.25,-4.83 -17.03,-5.46l0 -8.41 68.11 0 0 8.41c-6.94,0 -11.56,1.47 -14.3,4.41 -2.73,3.15 -3.99,8.62 -3.99,16.4l0 27.96c-3.99,0 -7.36,0.21 -9.88,0.63 -2.73,0.42 -5.47,1.26 -8.2,2.73 -2.94,1.47 -6.94,3.57 -12.19,6.73 -10.72,6.31 -24.17,9.46 -40.36,9.46z"/>
  <path id="_26" class="fil1" d="M2154.73 3785.06l0 53.39c9.04,0 16.19,-0.21 21.65,-0.84 5.47,-0.63 9.67,-1.68 12.83,-3.57 2.94,-1.68 5.04,-4.2 6.51,-7.78 1.26,-3.36 2.1,-7.78 2.73,-13.45l7.78 0 0 61.59 -7.78 0c-0.84,-5.68 -1.89,-10.3 -3.36,-13.67 -1.47,-3.36 -3.79,-5.88 -6.73,-7.57 -2.94,-1.47 -7.15,-2.52 -12.4,-3.15 -5.25,-0.63 -12.4,-0.84 -21.23,-0.84l0 43.3c0,6.1 1.05,10.72 3.36,14.29 2.31,3.57 6.1,5.89 11.35,7.36 5.25,1.47 12.19,2.31 21.23,2.31 10.72,0 19.13,-1.05 25.64,-3.15 6.31,-2.1 11.14,-5.89 14.72,-11.14 3.57,-5.25 6.3,-12.82 8.2,-22.28l8.41 0 -3.36 48.14 -142.52 0 0 -8.41c6.3,-0.21 11.14,-1.05 14.29,-2.31 3.15,-1.05 5.25,-3.36 6.31,-6.73 1.05,-3.36 1.47,-8.41 1.47,-14.93l0 -97.11c0,-6.52 -0.42,-11.56 -1.47,-14.92 -1.05,-3.16 -2.94,-5.47 -5.68,-6.73 -2.73,-1.26 -6.94,-2.1 -12.61,-2.32l0 -8.41 132.85 0 1.47 41.2 -9.04 0c-1.05,-7.78 -3.16,-13.87 -6.1,-18.29 -2.94,-4.41 -7.35,-7.36 -13.03,-9.25 -5.89,-1.68 -13.87,-2.52 -23.75,-2.52l-23.75 0c-3.57,0 -5.68,0.42 -6.52,1.26 -1.05,1.05 -1.47,3.15 -1.47,6.52z"/>
  <path id="_27" class="fil1" d="M2357.01 3764.04c12.61,0 24.38,2.1 35.31,6.31 10.72,4.41 20.39,10.3 28.59,17.87 8.2,7.78 14.5,16.61 19.13,26.91 4.41,10.3 6.73,21.23 6.73,33.21 0,11.35 -2.31,22.07 -6.94,31.95 -4.62,9.88 -10.93,18.71 -19.13,26.07 -8.2,7.36 -17.87,13.24 -28.59,17.45 -10.93,4.21 -22.7,6.31 -35.1,6.31 -12.4,0 -24.18,-2.1 -34.89,-6.31 -10.93,-4.2 -20.39,-10.09 -28.59,-17.45 -8.2,-7.36 -14.72,-16.19 -19.34,-26.07 -4.62,-9.88 -6.94,-20.6 -6.94,-31.95 0,-11.98 2.31,-22.91 6.94,-33.21 4.41,-10.3 10.93,-19.13 19.13,-26.91 8.2,-7.57 17.66,-13.45 28.59,-17.87 10.72,-4.21 22.49,-6.31 35.11,-6.31zm0 152.4c10.93,0 20.39,-2.73 28.38,-8.2 7.78,-5.46 13.87,-13.24 18.29,-23.54 4.41,-10.09 6.52,-22.07 6.52,-35.73 0,-14.51 -2.1,-27.12 -6.3,-37.84 -4.41,-10.72 -10.51,-18.92 -18.5,-24.81 -7.99,-5.67 -17.45,-8.62 -28.38,-8.62 -10.93,0 -20.39,2.94 -28.17,8.62 -7.99,5.89 -14.08,14.08 -18.5,24.81 -4.41,10.72 -6.52,23.33 -6.52,37.84 0,13.66 2.1,25.64 6.52,35.73 4.41,10.3 10.51,18.08 18.5,23.54 7.78,5.47 17.24,8.2 28.17,8.2z"/>
  <path id="_28" class="fil1" d="M2608.47 3928l-144.83 0 0 -8.41c6.3,-0.21 11.14,-1.05 14.29,-2.31 3.15,-1.05 5.25,-3.36 6.31,-6.73 1.05,-3.36 1.47,-8.41 1.47,-14.93l0 -97.11c0,-6.52 -0.42,-11.56 -1.47,-14.92 -1.05,-3.16 -2.94,-5.47 -5.68,-6.73 -2.73,-1.26 -6.94,-2.1 -12.61,-2.32l0 -8.41 72.52 0 0 8.41c-6.31,0.21 -10.93,0.84 -14.08,2.1 -3.16,1.47 -5.05,3.78 -6.1,7.36 -1.05,3.57 -1.68,8.83 -1.68,15.98l0 88.07c0,7.78 1.26,13.87 3.57,17.87 2.31,4 6.1,6.73 11.77,8.2 5.46,1.47 13.03,2.31 22.7,2.31 10.72,0 19.34,-1.05 25.86,-2.94 6.31,-1.89 11.14,-5.46 14.72,-10.72 3.36,-5.25 6.1,-12.61 8.2,-22.49l8.41 0 -3.36 47.72z"/>
  <path id="_29" class="fil1" d="M2717 3764.04c12.61,0 24.38,2.1 35.31,6.31 10.72,4.41 20.39,10.3 28.59,17.87 8.2,7.78 14.5,16.61 19.13,26.91 4.41,10.3 6.73,21.23 6.73,33.21 0,11.35 -2.31,22.07 -6.94,31.95 -4.62,9.88 -10.93,18.71 -19.13,26.07 -8.2,7.36 -17.87,13.24 -28.59,17.45 -10.93,4.21 -22.7,6.31 -35.1,6.31 -12.4,0 -24.18,-2.1 -34.89,-6.31 -10.93,-4.2 -20.39,-10.09 -28.59,-17.45 -8.2,-7.36 -14.72,-16.19 -19.34,-26.07 -4.62,-9.88 -6.94,-20.6 -6.94,-31.95 0,-11.98 2.31,-22.91 6.94,-33.21 4.41,-10.3 10.93,-19.13 19.13,-26.91 8.2,-7.57 17.66,-13.45 28.59,-17.87 10.72,-4.21 22.49,-6.31 35.11,-6.31zm0 152.4c10.93,0 20.39,-2.73 28.38,-8.2 7.78,-5.46 13.87,-13.24 18.29,-23.54 4.41,-10.09 6.52,-22.07 6.52,-35.73 0,-14.51 -2.1,-27.12 -6.3,-37.84 -4.41,-10.72 -10.51,-18.92 -18.5,-24.81 -7.99,-5.67 -17.45,-8.62 -28.38,-8.62 -10.93,0 -20.39,2.94 -28.17,8.62 -7.99,5.89 -14.08,14.08 -18.5,24.81 -4.41,10.72 -6.52,23.33 -6.52,37.84 0,13.66 2.1,25.64 6.52,35.73 4.41,10.3 10.51,18.08 18.5,23.54 7.78,5.47 17.24,8.2 28.17,8.2z"/>
  <path id="_30" class="fil1" d="M2910.88 3930.1c-16.82,0 -31.32,-3.36 -43.51,-9.88 -12.4,-6.52 -21.86,-15.77 -28.59,-27.75 -6.73,-11.98 -10.09,-26.07 -10.09,-42.46 0,-17.03 3.57,-32.16 10.72,-44.99 7.14,-12.82 17.03,-22.91 29.85,-30.27 12.82,-7.15 27.54,-10.72 44.14,-10.72 8.62,0 17.03,1.26 24.81,3.57 7.78,2.31 16.4,6.31 25.43,11.56l3.99 -13.03 7.57 0 0 53.18 -10.51 0c-2.73,-13.24 -8.2,-23.34 -16.81,-30.69 -8.62,-7.36 -19.13,-10.93 -31.95,-10.93 -15.98,0 -28.38,6.3 -37.42,18.71 -9.04,12.4 -13.45,29.85 -13.45,51.92 0,21.65 4.41,38.47 13.24,50.03 8.62,11.77 21.23,17.66 37.63,17.66 11.77,0 21.02,-3.15 27.75,-9.25 6.73,-6.1 10.09,-14.5 10.09,-25.22 0,-6.51 -1.68,-11.14 -5.05,-14.29 -3.57,-3.15 -9.25,-4.83 -17.03,-5.46l0 -8.41 68.11 0 0 8.41c-6.94,0 -11.56,1.47 -14.3,4.41 -2.73,3.15 -3.99,8.62 -3.99,16.4l0 27.96c-3.99,0 -7.36,0.21 -9.88,0.63 -2.73,0.42 -5.47,1.26 -8.2,2.73 -2.94,1.47 -6.94,3.57 -12.19,6.73 -10.72,6.31 -24.17,9.46 -40.36,9.46z"/>
  <path id="_31" class="fil1" d="M3016.11 3928l0 -8.41c6.31,-0.21 11.14,-1.05 14.29,-2.52 3.16,-1.47 5.26,-4.2 6.31,-8.41 1.05,-4.21 1.47,-10.72 1.47,-19.34l0 -84.5c0,-7.99 -0.42,-14.08 -1.26,-18.29 -1.05,-4.21 -2.94,-7.15 -5.67,-9.04 -2.94,-1.68 -7.36,-2.73 -13.03,-2.94l0 -8.41 70.84 0 0 8.41c-5.67,0.21 -10.09,1.26 -12.82,2.94 -2.94,1.89 -4.83,4.84 -5.68,9.04 -1.05,4.2 -1.47,10.3 -1.47,18.29l0 84.5c0,8.62 0.63,15.13 1.68,19.34 1.05,4.21 3.15,6.94 6.3,8.41 3.16,1.47 7.78,2.31 14.08,2.52l0 8.41 -75.04 0z"/>
  <path id="_32" class="fil1" d="M3244.03 3779.17l3.99 -13.03 10.3 0 -4.21 53.18 -8.41 0c-2.94,-12.83 -8.62,-23.12 -17.03,-30.48 -8.62,-7.36 -18.92,-11.14 -30.9,-11.14 -16.61,0 -29.22,6.3 -38.26,18.92 -9.04,12.61 -13.66,29.85 -13.66,51.92 0,21.65 4.41,38.26 13.45,50.03 9.04,11.77 22.07,17.66 39.31,17.66 13.87,0 25.43,-3.78 34.68,-11.56 9.25,-7.57 15.76,-18.71 19.76,-33.64l9.25 0 0 56.97 -9.88 0 -2.94 -16.61c-15.35,12.4 -34.05,18.71 -56.12,18.71 -17.03,0 -31.74,-3.36 -44.35,-9.88 -12.61,-6.52 -22.28,-15.98 -29.22,-27.96 -6.94,-11.98 -10.51,-26.07 -10.51,-42.46 0,-12.83 2.1,-24.38 6.31,-34.89 4.2,-10.3 10.09,-19.34 17.87,-27.12 7.57,-7.57 16.61,-13.45 27.33,-17.66 10.72,-3.99 22.28,-6.1 35.1,-6.1 8.62,0 16.61,1.26 24.17,3.57 7.36,2.31 15.35,6.31 23.97,11.56z"/>
  <path id="_33" class="fil1" d="M3272.47 3928l0 -8.41c6.73,-0.63 11.77,-2.31 15.35,-4.63 3.57,-2.31 6.52,-6.3 8.83,-12.4l55.28 -138.53 15.56 0 50.24 122.76c2.94,7.14 5.46,12.82 7.57,16.81 2.1,4.21 4.21,7.36 6.52,9.46 2.31,2.1 4.83,3.57 7.99,4.41 2.94,0.84 6.73,1.47 11.56,1.89l0 8.62 -79.46 0 0 -8.62c6.73,-0.21 11.56,-1.05 14.51,-2.1 2.94,-1.05 4.41,-3.36 4.41,-6.73 0,-1.89 -0.42,-4.63 -1.47,-7.78 -1.05,-3.15 -2.31,-6.73 -4,-11.14l-4.83 -12.61 -59.49 0c-6.52,14.92 -9.88,25.22 -9.88,30.9 0,4.2 1.68,6.94 4.84,7.99 3.15,1.05 7.78,1.68 14.08,1.68l0 8.41 -57.6 0zm53.39 -61.59l50.03 0 -24.18 -63.69 -0.84 0 -25.02 63.69z"/>
  <path id="_34" class="fil1" d="M3603.05 3928l-144.83 0 0 -8.41c6.3,-0.21 11.14,-1.05 14.29,-2.31 3.15,-1.05 5.25,-3.36 6.31,-6.73 1.05,-3.36 1.47,-8.41 1.47,-14.93l0 -97.11c0,-6.52 -0.42,-11.56 -1.47,-14.92 -1.05,-3.16 -2.94,-5.47 -5.68,-6.73 -2.73,-1.26 -6.94,-2.1 -12.61,-2.32l0 -8.41 72.52 0 0 8.41c-6.31,0.21 -10.93,0.84 -14.08,2.1 -3.16,1.47 -5.05,3.78 -6.1,7.36 -1.05,3.57 -1.68,8.83 -1.68,15.98l0 88.07c0,7.78 1.26,13.87 3.57,17.87 2.31,4 6.1,6.73 11.77,8.2 5.46,1.47 13.03,2.31 22.7,2.31 10.72,0 19.34,-1.05 25.86,-2.94 6.31,-1.89 11.14,-5.46 14.72,-10.72 3.36,-5.25 6.1,-12.61 8.2,-22.49l8.41 0 -3.36 47.72z"/>
  <path id="_35" class="fil1" d="M3707.44 3928l-3.16 -53.6 8.2 0c1.89,13.24 7.36,23.54 16.19,31.32 8.62,7.78 19.34,11.56 31.95,11.56 10.51,0 18.92,-2.52 25.43,-7.36 6.52,-4.84 9.67,-10.93 9.67,-18.71 0,-4.41 -1.05,-8.2 -2.94,-11.35 -2.1,-3.15 -5.88,-6.1 -11.56,-9.25 -5.68,-2.94 -14.08,-6.52 -25.02,-10.51 -16.19,-6.1 -28.38,-13.46 -36.15,-22.07 -7.99,-8.41 -11.98,-18.29 -11.98,-29.43 0,-8.83 2.31,-16.61 6.73,-23.33 4.41,-6.52 10.51,-11.77 18.29,-15.56 7.78,-3.78 16.61,-5.68 26.91,-5.68 13.87,0 26.91,4.41 38.89,13.45l3.78 -10.51 5.05 0 2.31 45.4 -8.2 0c-3.36,-11.56 -8.62,-20.39 -15.77,-26.48 -7.14,-6.1 -15.34,-9.04 -24.8,-9.04 -8.62,0 -15.56,2.1 -21.02,6.3 -5.47,4.41 -8.2,9.88 -8.2,16.61 0,4 1.05,7.36 2.94,10.09 1.89,2.94 5.25,5.68 10.51,8.41 5.25,2.73 12.61,6.1 22.28,9.67 19.55,7.36 33.63,15.35 42.25,23.75 8.62,8.62 12.82,18.71 12.82,30.27 0,9.46 -2.73,17.66 -7.99,25.02 -5.25,7.36 -12.61,13.03 -22.07,17.03 -9.46,3.99 -20.18,6.1 -32.58,6.1 -8.2,0 -15.77,-1.05 -22.7,-3.57 -6.94,-2.31 -13.87,-5.89 -20.81,-11.14l-4.21 12.61 -5.04 0z"/>
  <path id="_36" class="fil1" d="M3979.72 3779.17l3.99 -13.03 10.3 0 -4.21 53.18 -8.41 0c-2.94,-12.83 -8.62,-23.12 -17.03,-30.48 -8.62,-7.36 -18.92,-11.14 -30.9,-11.14 -16.61,0 -29.22,6.3 -38.26,18.92 -9.04,12.61 -13.66,29.85 -13.66,51.92 0,21.65 4.41,38.26 13.45,50.03 9.04,11.77 22.07,17.66 39.31,17.66 13.87,0 25.43,-3.78 34.68,-11.56 9.25,-7.57 15.76,-18.71 19.76,-33.64l9.25 0 0 56.97 -9.88 0 -2.94 -16.61c-15.35,12.4 -34.05,18.71 -56.12,18.71 -17.03,0 -31.74,-3.36 -44.35,-9.88 -12.61,-6.52 -22.28,-15.98 -29.22,-27.96 -6.94,-11.98 -10.51,-26.07 -10.51,-42.46 0,-12.83 2.1,-24.38 6.31,-34.89 4.2,-10.3 10.09,-19.34 17.87,-27.12 7.57,-7.57 16.61,-13.45 27.33,-17.66 10.72,-3.99 22.28,-6.1 35.1,-6.1 8.62,0 16.61,1.26 24.17,3.57 7.36,2.31 15.35,6.31 23.97,11.56z"/>
  <path id="_37" class="fil1" d="M4018.45 3928l0 -8.41c6.31,-0.21 11.14,-1.05 14.29,-2.52 3.16,-1.47 5.26,-4.2 6.31,-8.41 1.05,-4.21 1.47,-10.72 1.47,-19.34l0 -84.5c0,-7.99 -0.42,-14.08 -1.26,-18.29 -1.05,-4.21 -2.94,-7.15 -5.67,-9.04 -2.94,-1.68 -7.36,-2.73 -13.03,-2.94l0 -8.41 70.84 0 0 8.41c-5.67,0.21 -10.09,1.26 -12.82,2.94 -2.94,1.89 -4.83,4.84 -5.68,9.04 -1.05,4.2 -1.47,10.3 -1.47,18.29l0 84.5c0,8.62 0.63,15.13 1.68,19.34 1.05,4.21 3.15,6.94 6.3,8.41 3.16,1.47 7.78,2.31 14.08,2.52l0 8.41 -75.04 0z"/>
  <path id="_38" class="fil1" d="M4172.58 3785.06l0 53.39c9.04,0 16.19,-0.21 21.65,-0.84 5.47,-0.63 9.67,-1.68 12.83,-3.57 2.94,-1.68 5.04,-4.2 6.51,-7.78 1.26,-3.36 2.1,-7.78 2.73,-13.45l7.78 0 0 61.59 -7.78 0c-0.84,-5.68 -1.89,-10.3 -3.36,-13.67 -1.47,-3.36 -3.79,-5.88 -6.73,-7.57 -2.94,-1.47 -7.15,-2.52 -12.4,-3.15 -5.25,-0.63 -12.4,-0.84 -21.23,-0.84l0 43.3c0,6.1 1.05,10.72 3.36,14.29 2.31,3.57 6.1,5.89 11.35,7.36 5.25,1.47 12.19,2.31 21.23,2.31 10.72,0 19.13,-1.05 25.64,-3.15 6.31,-2.1 11.14,-5.89 14.72,-11.14 3.57,-5.25 6.3,-12.82 8.2,-22.28l8.41 0 -3.36 48.14 -142.52 0 0 -8.41c6.3,-0.21 11.14,-1.05 14.29,-2.31 3.15,-1.05 5.25,-3.36 6.31,-6.73 1.05,-3.36 1.47,-8.41 1.47,-14.93l0 -97.11c0,-6.52 -0.42,-11.56 -1.47,-14.92 -1.05,-3.16 -2.94,-5.47 -5.68,-6.73 -2.73,-1.26 -6.94,-2.1 -12.61,-2.32l0 -8.41 132.85 0 1.47 41.2 -9.04 0c-1.05,-7.78 -3.16,-13.87 -6.1,-18.29 -2.94,-4.41 -7.35,-7.36 -13.03,-9.25 -5.89,-1.68 -13.87,-2.52 -23.75,-2.52l-23.75 0c-3.57,0 -5.68,0.42 -6.52,1.26 -1.05,1.05 -1.47,3.15 -1.47,6.52z"/>
  <path id="_39" class="fil1" d="M4424.87 3930.1l-93.12 -132.64 -0.84 0 0 90.39c0,9.25 0.63,15.97 1.68,20.39 1.05,4.41 3.16,7.36 6.31,8.83 3.15,1.47 7.78,2.31 13.87,2.52l0 8.41 -62.43 0 0 -8.41c6.94,-0.21 11.98,-1.05 15.56,-2.52 3.36,-1.47 5.68,-4.2 6.94,-8.41 1.05,-4.21 1.68,-10.72 1.68,-19.34l0 -84.5c0,-7.99 -0.42,-14.08 -1.47,-18.29 -1.05,-4.21 -3.15,-7.15 -6.3,-9.04 -3.16,-1.68 -7.99,-2.73 -14.3,-2.94l0 -8.41 58.65 0 84.71 121.5 0.84 0 0 -81.35c0,-9.25 -0.42,-16.19 -1.47,-20.6 -1.05,-4.41 -3.15,-7.35 -6.3,-8.83 -3.15,-1.47 -7.78,-2.1 -14.08,-2.32l0 -8.41 62.43 0 0 8.41c-6.94,0.21 -11.98,0.84 -15.35,2.32 -3.57,1.47 -5.89,4.41 -6.94,8.62 -1.26,4.21 -1.89,10.72 -1.89,19.34l0 125.28 -28.17 0z"/>
  <path id="_40" class="fil1" d="M4626.52 3779.17l3.99 -13.03 10.3 0 -4.21 53.18 -8.41 0c-2.94,-12.83 -8.62,-23.12 -17.03,-30.48 -8.62,-7.36 -18.92,-11.14 -30.9,-11.14 -16.61,0 -29.22,6.3 -38.26,18.92 -9.04,12.61 -13.66,29.85 -13.66,51.92 0,21.65 4.41,38.26 13.45,50.03 9.04,11.77 22.07,17.66 39.31,17.66 13.87,0 25.43,-3.78 34.68,-11.56 9.25,-7.57 15.76,-18.71 19.76,-33.64l9.25 0 0 56.97 -9.88 0 -2.94 -16.61c-15.35,12.4 -34.05,18.71 -56.12,18.71 -17.03,0 -31.74,-3.36 -44.35,-9.88 -12.61,-6.52 -22.28,-15.98 -29.22,-27.96 -6.94,-11.98 -10.51,-26.07 -10.51,-42.46 0,-12.83 2.1,-24.38 6.31,-34.89 4.2,-10.3 10.09,-19.34 17.87,-27.12 7.57,-7.57 16.61,-13.45 27.33,-17.66 10.72,-3.99 22.28,-6.1 35.1,-6.1 8.62,0 16.61,1.26 24.17,3.57 7.36,2.31 15.35,6.31 23.97,11.56z"/>
  <path id="_41" class="fil1" d="M4718.02 3785.06l0 53.39c9.04,0 16.19,-0.21 21.65,-0.84 5.47,-0.63 9.67,-1.68 12.83,-3.57 2.94,-1.68 5.04,-4.2 6.51,-7.78 1.26,-3.36 2.1,-7.78 2.73,-13.45l7.78 0 0 61.59 -7.78 0c-0.84,-5.68 -1.89,-10.3 -3.36,-13.67 -1.47,-3.36 -3.79,-5.88 -6.73,-7.57 -2.94,-1.47 -7.15,-2.52 -12.4,-3.15 -5.25,-0.63 -12.4,-0.84 -21.23,-0.84l0 43.3c0,6.1 1.05,10.72 3.36,14.29 2.31,3.57 6.1,5.89 11.35,7.36 5.25,1.47 12.19,2.31 21.23,2.31 10.72,0 19.13,-1.05 25.64,-3.15 6.31,-2.1 11.14,-5.89 14.72,-11.14 3.57,-5.25 6.3,-12.82 8.2,-22.28l8.41 0 -3.36 48.14 -142.52 0 0 -8.41c6.3,-0.21 11.14,-1.05 14.29,-2.31 3.15,-1.05 5.25,-3.36 6.31,-6.73 1.05,-3.36 1.47,-8.41 1.47,-14.93l0 -97.11c0,-6.52 -0.42,-11.56 -1.47,-14.92 -1.05,-3.16 -2.94,-5.47 -5.68,-6.73 -2.73,-1.26 -6.94,-2.1 -12.61,-2.32l0 -8.41 132.85 0 1.47 41.2 -9.04 0c-1.05,-7.78 -3.16,-13.87 -6.1,-18.29 -2.94,-4.41 -7.35,-7.36 -13.03,-9.25 -5.89,-1.68 -13.87,-2.52 -23.75,-2.52l-23.75 0c-3.57,0 -5.68,0.42 -6.52,1.26 -1.05,1.05 -1.47,3.15 -1.47,6.52z"/>
  <path id="_42" class="fil1" d="M4835.59 3928l-3.16 -53.6 8.2 0c1.89,13.24 7.36,23.54 16.19,31.32 8.62,7.78 19.34,11.56 31.95,11.56 10.51,0 18.92,-2.52 25.43,-7.36 6.52,-4.84 9.67,-10.93 9.67,-18.71 0,-4.41 -1.05,-8.2 -2.94,-11.35 -2.1,-3.15 -5.88,-6.1 -11.56,-9.25 -5.68,-2.94 -14.08,-6.52 -25.02,-10.51 -16.19,-6.1 -28.38,-13.46 -36.15,-22.07 -7.99,-8.41 -11.98,-18.29 -11.98,-29.43 0,-8.83 2.31,-16.61 6.73,-23.33 4.41,-6.52 10.51,-11.77 18.29,-15.56 7.78,-3.78 16.61,-5.68 26.91,-5.68 13.87,0 26.91,4.41 38.89,13.45l3.78 -10.51 5.05 0 2.31 45.4 -8.2 0c-3.36,-11.56 -8.62,-20.39 -15.77,-26.48 -7.14,-6.1 -15.34,-9.04 -24.8,-9.04 -8.62,0 -15.56,2.1 -21.02,6.3 -5.47,4.41 -8.2,9.88 -8.2,16.61 0,4 1.05,7.36 2.94,10.09 1.89,2.94 5.25,5.68 10.51,8.41 5.25,2.73 12.61,6.1 22.28,9.67 19.55,7.36 33.63,15.35 42.25,23.75 8.62,8.62 12.82,18.71 12.82,30.27 0,9.46 -2.73,17.66 -7.99,25.02 -5.25,7.36 -12.61,13.03 -22.07,17.03 -9.46,3.99 -20.18,6.1 -32.58,6.1 -8.2,0 -15.77,-1.05 -22.7,-3.57 -6.94,-2.31 -13.87,-5.89 -20.81,-11.14l-4.21 12.61 -5.04 0z"/>
 </g>
</svg>
