 <svg  version="1.0" xmlns="http://www.w3.org/2000/svg"  width="488.000000pt" height="446.000000pt" viewBox="0 0 488.000000 446.000000"  preserveAspectRatio="xMidYMid meet">  <g transform="translate(0.000000,446.000000) scale(0.100000,-0.100000)" fill="#ffffff" stroke="none"> <path d="M1891 3900 c-12 -35 -12 -35 34 -16 41 17 46 30 9 23 -18 -3 -24 -1 -20 9 3 8 1 14 -3 14 -5 0 -14 -13 -20 -30z"/> <path d="M2413 3917 c4 -10 -2 -13 -19 -9 -36 7 -29 -7 14 -25 27 -12 32 -18 19 -21 -14 -3 -16 -7 -6 -18 6 -7 15 -11 20 -8 13 7 48 -78 47 -114 -1 -16 2 -34 6 -41 4 -6 4 -11 -1 -11 -4 0 -9 -11 -9 -25 -1 -14 -5 -43 -9 -63 l-7 -37 -13 31 c-22 54 -35 51 -33 -8 1 -43 2 -46 5 -15 2 20 8 35 14 32 16 -10 9 -69 -11 -95 l-20 -25 0 27 c0 32 -9 58 -20 58 -10 0 -40 -86 -40 -116 0 -17 -16 -31 -73 -62 -40 -22 -79 -48 -86 -56 -19 -22 -7 -20 37 8 35 22 43 23 132 16 57 -4 108 -14 128 -24 37 -19 42 -9 9 22 -41 38 -78 45 -147 28 -34 -9 -65 -16 -68 -16 -18 0 78 49 108 55 72 14 132 37 122 47 -7 7 -28 5 -64 -5 l-53 -16 32 27 c17 15 46 36 64 47 35 22 69 65 51 65 -6 0 -28 -15 -48 -32 l-37 -33 18 35 c10 19 24 39 31 43 19 11 57 87 44 87 -5 0 -18 -17 -29 -37 -15 -28 -20 -33 -21 -18 0 11 9 37 20 58 21 39 27 83 10 72 -5 -3 -10 -16 -10 -28 0 -17 -2 -19 -9 -8 -5 8 -8 39 -6 70 3 42 2 47 -3 21 -7 -33 -8 -34 -15 -10 -4 14 -7 36 -7 50 0 14 -5 32 -11 40 -8 11 -9 8 -5 -15 l6 -30 -17 30 c-17 30 -19 35 -22 55 0 6 -6 10 -12 10 -6 0 -9 -6 -6 -13z m-27 -474 c-11 -13 -22 -23 -24 -23 -7 0 5 51 19 85 l12 30 6 -35 c5 -26 1 -41 -13 -57z"/> <path d="M1851 3872 c-6 -11 -9 -27 -6 -34 3 -8 1 -25 -4 -39 -10 -24 -10 -24 -10 6 -1 22 -4 26 -12 18 -9 -9 -9 -23 0 -58 14 -56 3 -83 -15 -34 -12 33 -12 33 -13 6 -1 -15 8 -46 20 -68 25 -50 20 -76 -6 -31 -11 18 -23 32 -27 32 -13 0 12 -53 36 -80 23 -24 46 -62 46 -75 0 -4 -14 7 -31 24 -17 17 -35 31 -41 31 -18 0 17 -44 51 -65 47 -29 101 -79 76 -70 -45 16 -96 27 -101 22 -13 -13 10 -25 83 -42 50 -12 107 -35 161 -66 46 -27 82 -43 80 -37 -2 6 -37 30 -78 53 l-74 42 -16 67 c-9 36 -20 69 -24 73 -11 12 -26 -19 -25 -52 2 -29 2 -29 8 5 l7 35 18 -53 c19 -56 16 -78 -6 -43 -7 12 -18 21 -25 21 -6 0 -15 9 -18 20 -3 11 -11 20 -16 20 -5 0 -9 8 -9 19 0 10 -7 24 -15 31 -9 7 -14 19 -11 26 3 7 0 14 -6 16 -6 2 -10 30 -9 68 2 98 3 102 26 146 19 35 20 45 10 64 l-12 23 -12 -21z"/> <path d="M1893 3853 c4 -3 1 -13 -5 -22 -8 -10 -4 -9 10 3 26 23 27 26 5 26 -9 0 -13 -3 -10 -7z"/> <path d="M2045 3804 c-42 -57 -48 -95 -6 -46 15 17 31 32 35 32 10 0 66 -57 66 -67 0 -5 -20 -29 -45 -53 -32 -31 -42 -47 -34 -55 8 -7 24 5 57 42 l46 53 46 -52 c31 -35 50 -49 59 -44 9 6 -1 23 -38 60 l-51 52 38 37 39 38 24 -35 c13 -20 27 -36 32 -36 16 0 5 28 -30 72 -41 51 -67 63 -58 25 5 -16 -3 -30 -27 -55 l-34 -32 -38 39 c-23 24 -34 41 -27 45 16 10 14 26 -4 26 -8 0 -30 -21 -50 -46z"/> <path d="M1880 3798 c0 -6 -8 -21 -17 -32 -17 -20 -17 -20 0 -7 24 19 41 51 27 51 -5 0 -10 -5 -10 -12z"/> <path d="M2430 3804 c0 -3 9 -19 21 -35 15 -22 17 -27 5 -23 -20 8 -20 -3 -1 -36 19 -33 19 -46 0 -30 -12 10 -15 10 -15 -1 0 -21 21 -91 26 -87 2 2 0 19 -5 36 -9 30 2 46 12 20 3 -7 4 1 2 17 -1 17 -6 39 -11 49 -5 13 -4 17 3 13 14 -9 11 9 -7 51 -13 28 -30 43 -30 26z"/> <path d="M1869 3748 c0 -2 -2 -14 -5 -28 -4 -24 -3 -24 11 -6 17 23 19 36 5 36 -5 0 -10 -1 -11 -2z"/> <path d="M1877 3683 c-2 -4 -7 -26 -10 -48 l-6 -40 14 44 c13 40 14 65 2 44z"/> <path d="M1880 3595 c-7 -14 -10 -28 -7 -32 4 -3 7 1 7 10 0 36 19 15 23 -25 3 -37 4 -35 5 15 2 61 -7 72 -28 32z"/> <path d="M2048 3510 c2 -22 9 -40 16 -40 7 0 10 14 8 40 -2 22 -9 40 -16 40 -7 0 -10 -14 -8 -40z"/> <path d="M2100 3526 c0 -14 5 -26 11 -26 6 0 9 7 6 15 -4 8 -2 17 3 20 6 4 10 -7 10 -24 0 -23 -5 -31 -17 -31 -14 0 -15 -2 -4 -12 10 -11 15 -9 27 7 22 29 14 69 -13 73 -19 3 -23 -1 -23 -22z"/> <path d="M2180 3535 c-9 -11 -9 -15 -1 -15 7 0 9 -5 6 -10 -4 -6 -11 -8 -16 -5 -5 4 -9 1 -9 -4 0 -6 7 -11 16 -11 8 0 12 -4 9 -10 -3 -5 0 -10 8 -10 11 0 14 9 10 38 -6 45 -7 46 -23 27z"/> <path d="M2227 3543 c-12 -12 -7 -60 7 -72 11 -9 18 -8 30 4 17 17 20 34 10 59 -6 16 -35 22 -47 9z m33 -33 c0 -16 -4 -30 -10 -30 -5 0 -10 14 -10 30 0 17 5 30 10 30 6 0 10 -13 10 -30z"/> <path d="M1630 3413 c-32 -29 -41 -68 -26 -111 7 -22 6 -22 -46 -16 -30 3 -72 1 -96 -5 -41 -11 -82 -41 -82 -59 0 -5 28 -9 63 -10 34 0 114 -10 177 -21 123 -21 174 -19 325 13 106 22 345 20 464 -5 119 -25 211 -26 322 -5 47 9 111 17 142 18 41 1 58 6 62 17 16 41 -110 75 -193 52 -29 -9 -31 -8 -22 9 20 38 12 90 -19 121 -59 58 -161 28 -161 -47 0 -51 36 -74 42 -26 3 23 7 27 37 27 40 0 57 -21 47 -58 -16 -67 -106 -77 -231 -27 -104 41 -166 43 -229 6 l-46 -27 -28 21 c-63 47 -128 45 -252 -6 -81 -33 -149 -36 -188 -7 -47 34 -39 103 12 103 27 0 46 -18 46 -42 0 -10 4 -18 8 -18 17 0 32 25 32 55 0 73 -99 102 -160 48z m30 -164 c10 -18 9 -19 -17 -13 -42 10 -46 15 -26 29 20 15 29 12 43 -16z m1062 0 c-4 -4 -22 -10 -40 -14 l-34 -7 22 25 c19 21 26 24 41 14 10 -6 15 -15 11 -18z m-308 -25 c144 -29 182 -30 314 -4 56 11 126 19 155 19 l52 -2 -60 -9 c-33 -5 -96 -15 -140 -23 -109 -20 -205 -19 -327 5 -143 28 -349 27 -494 -1 -125 -24 -208 -22 -394 7 -104 16 -117 20 -77 22 27 2 96 -6 154 -17 133 -26 171 -26 313 3 161 33 341 33 504 0z"/> <path d="M1883 3373 c-24 -5 -73 -47 -73 -63 0 -6 13 -4 33 6 18 10 68 20 117 23 82 6 84 7 50 18 -45 15 -99 22 -127 16z"/> <path d="M1655 3129 c-99 -5 -278 -15 -398 -23 l-217 -15 -130 -105 -131 -104 -70 20 -70 19 -224 -178 c-123 -98 -224 -184 -224 -190 -1 -15 15 -17 24 -3 5 8 254 210 390 317 l41 31 69 -19 c38 -10 73 -15 79 -10 6 4 66 52 133 105 l122 97 31 -22 c17 -13 29 -26 28 -30 -2 -3 -57 -49 -124 -102 l-120 -95 -69 19 c-38 10 -73 15 -79 10 -6 -4 -126 -99 -266 -211 -140 -112 -257 -204 -259 -206 -1 -1 -1 -8 1 -14 2 -6 121 84 266 200 l262 211 0 -502 0 -502 -163 7 c-298 11 -360 11 -365 -2 -3 -9 23 -12 96 -12 54 0 174 -3 265 -7 l167 -6 0 -114 c0 -104 -2 -114 -17 -109 -10 3 -123 21 -251 41 -129 20 -241 39 -249 42 -11 4 -14 2 -11 -8 3 -9 83 -26 274 -55 253 -40 273 -42 339 -30 52 9 151 11 385 5 400 -9 1522 -9 1960 0 244 5 351 3 393 -5 53 -11 83 -9 333 29 156 24 274 46 274 52 0 7 -99 -5 -257 -30 -142 -23 -261 -40 -265 -38 -5 2 -8 53 -8 112 l0 108 173 6 c94 4 214 7 265 7 75 0 92 3 92 15 0 12 -9 14 -37 10 -21 -2 -140 -7 -265 -10 l-228 -6 0 502 c0 477 1 501 18 487 9 -8 121 -97 247 -198 127 -101 238 -190 249 -199 17 -15 18 -15 15 1 -3 11 -521 438 -533 438 0 0 -32 -9 -69 -20 l-69 -19 -121 97 c-67 53 -124 97 -126 99 -5 3 23 27 50 43 13 7 44 -13 146 -95 l130 -105 68 19 c38 11 74 17 80 13 10 -6 395 -312 429 -341 17 -15 18 -15 15 1 -3 12 -249 216 -436 360 -7 6 -37 2 -79 -11 l-68 -20 -28 22 c-15 12 -75 59 -132 105 l-105 83 -208 14 c-502 35 -1016 43 -1438 24z m1605 -55 c0 -3 -10 -14 -22 -25 -22 -18 -61 -18 -1061 -19 -964 0 -1041 1 -1068 17 -16 10 -29 21 -29 25 0 4 490 7 1090 7 600 0 1090 -2 1090 -5z m-332 -64 l272 0 0 -585 0 -585 -377 2 c-315 2 -335 3 -120 5 l257 3 0 533 0 533 -92 -9 c-120 -12 -1275 -12 -1395 0 l-93 9 0 -533 0 -533 259 0 c143 0 262 3 264 8 7 10 137 2 137 -8 0 -5 -69 -9 -154 -9 -85 -1 -159 -1 -163 -2 -4 -1 -137 -1 -295 0 l-288 1 0 585 0 585 393 3 c215 2 556 2 757 0 201 -1 488 -3 638 -3z m-1808 -589 l0 -579 -67 -6 c-38 -4 -92 -9 -120 -11 l-53 -5 0 493 0 493 118 96 c64 53 118 97 120 97 1 1 2 -260 2 -578z m2282 436 l67 -52 1 -493 0 -494 -67 7 c-38 3 -94 8 -125 11 l-58 6 0 580 0 580 58 -47 c31 -25 87 -70 124 -98z m-1232 22 c305 0 604 4 663 8 60 5 110 6 113 4 9 -10 4 -1021 -6 -1021 -7 0 -10 175 -10 505 l0 506 -67 -8 c-88 -10 -1298 -10 -1385 0 l-68 8 0 -500 0 -500 33 -4 c27 -3 25 -4 -12 -5 -36 -2 -42 1 -37 14 3 9 6 239 6 512 l0 497 108 -8 c59 -4 357 -8 662 -8z m-691 -206 l1 -142 95 0 95 1 0 144 0 144 -89 0 c-74 0 -93 3 -112 20 l-24 20 90 -7 c120 -10 1178 -10 1280 0 l79 8 -18 -20 c-17 -18 -31 -21 -113 -21 l-93 0 0 -144 0 -145 95 0 95 1 0 136 c0 126 2 137 22 159 12 13 25 23 30 23 4 0 8 -214 8 -475 0 -261 -3 -475 -8 -475 -4 0 -18 7 -30 16 -21 14 -22 22 -22 143 l0 128 -92 -1 -93 -1 -3 -133 -3 -132 93 0 c66 -1 99 -5 112 -15 18 -13 -6 -15 -212 -15 l-232 0 0 139 c0 77 3 146 6 155 5 13 24 16 105 16 l100 0 -3 153 -3 152 -142 2 -143 2 0 -89 c0 -82 -2 -90 -19 -90 -17 0 -19 8 -18 88 l2 87 -142 2 -143 2 0 -89 c0 -83 -1 -90 -20 -90 -19 0 -20 7 -20 89 l0 90 -140 0 -140 0 0 -154 0 -154 98 -3 97 -3 3 -153 3 -153 -246 2 -245 1 0 485 0 485 29 -24 30 -23 0 -142z m-621 -361 c2 -411 0 -492 -12 -492 -7 0 -34 3 -60 6 l-46 7 0 502 0 503 58 -17 57 -17 3 -492z m2745 20 l2 -500 -54 -6 c-30 -4 -56 -5 -58 -3 -2 2 -3 224 -3 493 l0 488 52 16 c29 9 54 16 56 15 1 -1 4 -227 5 -503z m-2043 348 l0 -130 -30 0 -30 0 0 130 0 130 30 0 30 0 0 -130z m100 0 l0 -130 -35 0 -35 0 0 130 0 130 35 0 35 0 0 -130z m1090 0 l0 -130 -30 0 -30 0 0 130 0 130 30 0 30 0 0 -130z m100 0 l0 -130 -35 0 -35 0 0 130 0 130 35 0 35 0 0 -130z m-1060 -330 l0 -140 -35 0 -35 0 0 140 0 140 35 0 35 0 0 -140z m90 60 c0 -47 -4 -80 -10 -80 -5 0 -10 -11 -10 -24 0 -14 5 -28 10 -31 6 -3 10 -19 10 -36 0 -26 -3 -29 -30 -29 l-30 0 0 140 0 140 30 0 30 0 0 -80z m90 16 c0 -35 3 -71 6 -80 5 -13 -1 -16 -30 -16 l-36 0 0 80 0 80 30 0 30 0 0 -64z m140 -16 l0 -80 -36 0 c-29 0 -35 3 -30 16 3 9 6 45 6 80 l0 64 30 0 30 0 0 -80z m90 0 l0 -80 -30 0 -30 0 0 80 0 80 30 0 30 0 0 -80z m100 0 l0 -80 -35 0 -35 0 0 80 0 80 35 0 35 0 0 -80z m130 0 l0 -80 -30 0 -30 0 0 80 0 80 30 0 30 0 0 -80z m100 -60 l0 -140 -28 0 c-16 0 -31 2 -34 5 -3 3 0 29 5 57 8 39 7 53 -1 56 -8 2 -12 31 -12 83 l0 79 35 0 35 0 0 -140z m90 0 l0 -140 -30 0 -30 0 0 140 0 140 30 0 30 0 0 -140z m-160 -57 c0 -5 -130 -8 -290 -8 -159 0 -290 3 -290 8 0 4 131 7 290 7 160 0 290 -3 290 -7z m-10 -53 l0 -30 -280 0 -280 0 0 30 0 30 280 0 280 0 0 -30z m-146 -56 c16 -43 13 -44 -134 -44 -128 0 -140 2 -140 18 0 36 20 42 146 42 102 0 123 -3 128 -16z m-285 -151 c1 -83 -2 -154 -6 -156 -4 -3 -8 59 -8 136 l0 142 -33 3 -33 3 3 -145 c2 -80 -1 -145 -5 -143 -4 1 -9 73 -10 159 l-2 157 47 -2 46 -2 1 -152z m398 -2 c-2 -127 -5 -155 -17 -159 -12 -4 -13 -2 -2 9 8 9 12 53 12 146 l0 133 -34 0 c-30 0 -35 -4 -39 -27 -3 -21 -4 -17 -6 13 l-1 41 44 -1 45 0 -2 -155z m333 19 l0 -120 -30 0 -30 0 0 120 0 120 30 0 30 0 0 -120z m100 0 l0 -120 -35 0 -35 0 0 120 0 120 35 0 35 0 0 -120z m-860 -30 c0 -123 -1 -130 -20 -130 -19 0 -20 7 -20 130 0 123 1 130 20 130 19 0 20 -7 20 -130z m404 3 c-1 -123 -2 -128 -23 -131 -21 -3 -21 0 -21 127 0 129 0 131 23 131 22 0 22 -2 21 -127z m-234 -44 l0 -139 -55 0 c-48 0 -55 2 -55 20 0 11 -4 20 -10 20 -6 0 -10 48 -10 123 l0 122 65 -3 65 -4 0 -139z m139 -105 c-6 -7 -8 -18 -4 -24 4 -6 -15 -10 -54 -10 l-61 0 0 140 0 139 63 3 62 3 3 -119 c2 -76 -1 -123 -9 -132z m141 -25 c0 -5 -29 -9 -65 -9 -80 0 -86 18 -7 22 62 3 72 2 72 -13z m-1320 -139 l0 -110 -120 0 -120 0 0 99 0 100 53 5 c28 4 72 8 97 9 25 2 55 4 68 5 22 2 22 0 22 -108z m260 -6 c0 -102 -2 -115 -16 -110 -9 3 -63 6 -120 6 l-104 0 0 110 0 110 120 0 120 0 0 -116z m328 75 c-1 -41 -1 -41 -77 -76 -51 -23 -87 -33 -111 -31 -34 3 -35 2 -38 -37 -3 -40 -3 -40 -42 -40 l-40 0 0 112 0 113 155 0 155 0 -2 -41z m912 31 c0 -7 -157 -10 -450 -10 -293 0 -450 3 -450 10 0 7 157 10 450 10 293 0 450 -3 450 -10z m298 -102 l-3 -113 -25 0 c-22 0 -25 5 -28 40 -3 40 -3 41 -38 37 -25 -3 -57 5 -109 29 l-74 34 -1 43 0 42 140 0 141 0 -3 -112z m282 3 l0 -110 -130 -3 -130 -3 0 113 0 112 130 0 130 0 0 -109z m193 93 l78 -6 -3 -96 -3 -97 -122 -3 -123 -3 0 111 0 111 48 -5 c26 -3 82 -8 125 -12z m-2562 -4 l29 0 0 -99 0 -99 -46 -7 c-26 -3 -53 -9 -60 -12 -11 -4 -14 17 -14 112 l0 118 31 -7 c17 -3 44 -6 60 -6z m2771 -103 c0 -60 -2 -110 -4 -112 -2 -2 -27 2 -56 8 l-53 12 -2 97 -2 97 35 4 c86 10 82 15 82 -106z m-982 38 l0 -45 70 -35 c49 -25 83 -35 116 -35 32 0 44 -4 41 -12 -2 -9 -34 -13 -105 -14 -93 -1 -102 1 -102 18 0 17 -21 18 -469 18 -438 0 -469 -1 -467 -17 1 -15 -12 -18 -101 -21 -88 -3 -103 -1 -103 12 0 12 11 16 43 16 29 1 64 12 112 38 l70 37 -3 43 -4 42 451 0 451 0 0 -45z m-971 -61 c-63 -33 -149 -46 -149 -24 0 6 19 10 43 10 26 1 63 12 97 29 30 16 59 26 64 23 5 -3 -20 -20 -55 -38z m1150 -14 c22 0 43 -4 46 -10 4 -6 -12 -10 -40 -10 -47 0 -165 50 -165 70 0 6 27 -3 60 -20 36 -18 75 -30 99 -30z m-179 -55 c0 -13 -56 -15 -444 -15 -245 0 -447 4 -450 9 -3 4 -3 11 1 15 3 3 206 6 450 6 387 0 443 -2 443 -15z"/> <path d="M1710 2676 l0 -144 140 0 140 -1 0 145 0 144 -140 0 -140 0 0 -144z m80 4 l0 -130 -35 0 -35 0 0 130 0 130 35 0 35 0 0 -130z m90 0 l0 -130 -30 0 -30 0 0 130 0 130 30 0 30 0 0 -130z m93 118 c-2 -5 -3 -62 -3 -128 l0 -120 -30 0 -30 0 0 131 0 130 33 -3 c17 -2 31 -6 30 -10z"/> <path d="M2030 2675 l0 -144 138 1 c91 0 139 4 144 12 9 13 10 222 2 254 -6 21 -10 22 -145 22 l-139 0 0 -145z m80 5 l0 -130 -30 0 -30 0 0 130 0 130 30 0 30 0 0 -130z m90 0 l0 -130 -30 0 -30 0 0 130 0 130 30 0 30 0 0 -130z m100 0 l0 -130 -35 0 -35 0 0 130 0 130 35 0 35 0 0 -130z"/> <path d="M2350 2675 l0 -144 143 2 142 2 3 143 3 142 -146 0 -145 0 0 -145z m80 5 l0 -130 -30 0 -30 0 0 130 0 130 30 0 30 0 0 -130z m100 0 l0 -130 -35 0 -35 0 0 130 0 130 35 0 35 0 0 -130z m90 0 l0 -130 -29 0 -30 0 -3 126 c-2 69 -1 128 1 130 2 2 17 4 33 4 l28 0 0 -130z"/> <path d="M1480 2355 l0 -155 95 0 95 0 0 155 0 154 -95 0 -95 0 0 -154z m80 -5 l0 -140 -30 0 -30 0 0 140 0 140 30 0 30 0 0 -140z m100 0 l0 -140 -35 0 -35 0 0 140 0 140 35 0 35 0 0 -140z"/> <path d="M2670 2355 l0 -155 95 0 95 0 0 155 0 154 -95 0 -95 0 0 -154z m80 -5 l0 -140 -30 0 -30 0 0 140 0 140 30 0 30 0 0 -140z m98 3 l-3 -138 -32 -3 -33 -3 0 140 0 141 35 0 36 0 -3 -137z"/> <path d="M1484 2181 c-2 -2 -4 -60 -4 -129 0 -107 -3 -127 -17 -139 -17 -14 -17 -14 2 -7 11 5 62 10 113 12 l92 3 0 133 0 133 -91 -1 c-49 0 -92 -2 -95 -5z m76 -131 l0 -120 -30 0 -30 0 0 120 0 120 30 0 30 0 0 -120z m100 0 l0 -120 -35 0 -35 0 0 120 0 120 35 0 35 0 0 -120z"/> <path d="M1716 2182 c-3 -3 -6 -63 -6 -134 l0 -129 93 3 92 3 0 122 c0 67 -3 124 -6 128 -9 8 -166 15 -173 7z m74 -132 l0 -120 -35 0 -35 0 0 120 0 120 35 0 35 0 0 -120z m90 0 l0 -120 -30 0 -30 0 0 120 0 120 30 0 30 0 0 -120z"/> <path d="M2467 2182 c-15 -3 -17 -18 -17 -133 l0 -129 95 0 96 0 -3 133 -3 132 -75 0 c-42 0 -83 -1 -93 -3z m63 -132 l0 -120 -35 0 -35 0 0 120 0 120 35 0 35 0 0 -120z m90 0 l0 -120 -30 0 -30 0 0 120 0 120 30 0 30 0 0 -120z"/> <path d="M4135 1624 c-5 -2 -128 -22 -272 -44 -243 -37 -266 -39 -325 -27 -47 9 -152 10 -413 6 -448 -8 -1493 -8 -1920 0 -240 4 -349 3 -398 -6 -64 -12 -86 -10 -325 28 -232 36 -326 45 -282 26 8 -3 132 -24 276 -45 240 -37 266 -39 325 -28 46 9 142 10 349 5 373 -10 1687 -10 2045 0 206 5 297 4 345 -5 60 -11 85 -9 335 29 149 22 272 42 274 43 7 6 -5 21 -14 18z"/> <path d="M720 1340 c0 -5 5 -10 10 -10 6 0 10 -22 10 -50 0 -27 -4 -50 -10 -50 -5 0 -10 -4 -10 -10 0 -5 13 -10 28 -10 29 0 29 0 24 55 -3 35 0 60 8 70 11 13 7 15 -24 15 -20 0 -36 -4 -36 -10z"/> <path d="M1095 1341 c-7 -12 12 -24 25 -16 11 7 4 25 -10 25 -5 0 -11 -4 -15 -9z"/> <path d="M1702 1338 c-6 -6 -12 -20 -12 -29 0 -10 -6 -20 -12 -22 -10 -4 -10 -6 0 -6 15 -1 16 -43 0 -59 -9 -9 -5 -12 20 -12 18 0 32 1 32 3 0 1 -4 17 -9 35 -8 27 -7 32 7 32 14 0 13 2 -2 13 -15 11 -17 18 -8 33 6 10 12 13 12 7 0 -7 7 -13 16 -13 22 0 12 24 -12 28 -11 1 -25 -3 -32 -10z"/> <path d="M1842 1327 c-27 -29 -28 -71 -2 -97 33 -33 105 -23 112 15 4 19 0 24 -21 28 -27 5 -45 -2 -23 -10 6 -3 12 -11 12 -19 0 -20 -56 -18 -64 2 -10 25 -7 59 6 72 17 17 55 15 62 -3 9 -23 24 -18 19 8 -7 33 -71 36 -101 4z"/> <path d="M2185 1341 c-3 -5 -1 -12 5 -16 14 -9 13 -88 -2 -103 -9 -9 -4 -12 22 -12 26 0 31 3 22 12 -7 7 -12 38 -12 70 0 44 -4 58 -14 58 -8 0 -17 -4 -21 -9z"/> <path d="M2475 1341 c-7 -12 12 -24 25 -16 11 7 4 25 -10 25 -5 0 -11 -4 -15 -9z"/> <path d="M2738 1286 c4 -62 3 -64 -17 -59 -16 4 -19 11 -15 27 3 14 -1 28 -10 35 -20 17 -66 6 -66 -16 0 -15 1 -15 18 0 10 10 22 14 25 10 13 -12 7 -21 -18 -27 -15 -4 -25 -14 -25 -25 0 -16 9 -18 76 -19 63 0 74 2 70 15 -3 8 -6 39 -6 69 0 45 -3 54 -18 54 -16 0 -17 -8 -14 -64z"/> <path d="M2862 1338 c-21 -21 -13 -46 23 -68 38 -24 43 -35 20 -44 -8 -3 -24 4 -35 16 l-20 22 0 -25 c0 -20 5 -24 32 -26 65 -5 79 45 23 78 -19 12 -35 25 -35 30 0 12 37 11 45 -1 9 -15 25 -12 25 4 0 7 -10 16 -22 20 -33 8 -43 7 -56 -6z"/> <path d="M3070 1335 c0 -8 7 -15 15 -15 8 0 15 7 15 15 0 8 -7 15 -15 15 -8 0 -15 -7 -15 -15z"/> <path d="M1029 1307 c-26 -19 -11 -91 19 -95 12 -2 22 2 22 8 0 6 -4 8 -10 5 -6 -4 -10 7 -10 24 0 24 4 31 20 31 26 0 37 -27 21 -51 -10 -17 -8 -19 15 -19 20 0 25 4 20 16 -3 9 -6 28 -6 42 0 24 -4 27 -32 26 -19 -1 -35 5 -38 12 -4 10 -9 10 -21 1z"/> <path d="M1156 1299 c-11 -10 -14 -19 -8 -19 7 0 12 -15 12 -35 0 -28 4 -35 19 -35 11 0 23 5 26 10 3 6 -1 10 -9 10 -10 0 -16 9 -16 25 0 20 5 25 24 25 21 0 25 -6 28 -32 3 -32 5 -33 51 -35 42 -2 47 0 37 12 -7 8 -10 26 -8 40 5 22 2 25 -21 24 -14 0 -20 -3 -13 -6 6 -2 12 -16 12 -30 0 -18 -5 -24 -17 -21 -12 3 -17 12 -16 30 1 24 -2 27 -35 30 -23 2 -36 8 -34 16 3 17 -10 14 -32 -9z"/> <path d="M1354 1307 c-14 -17 -5 -87 13 -94 8 -3 19 -1 26 6 8 8 7 11 -6 11 -11 0 -17 8 -17 25 0 16 6 25 15 25 8 0 15 5 15 11 0 5 -4 7 -10 4 -5 -3 -10 1 -10 9 0 19 -11 20 -26 3z"/> <path d="M802 1288 c-11 -4 -12 -7 -3 -7 10 -1 12 -10 8 -36 -5 -30 -3 -35 15 -35 15 0 18 4 14 16 -9 24 3 54 21 54 12 0 14 -8 10 -35 -5 -30 -3 -35 13 -35 16 0 19 5 14 33 -3 17 -7 37 -9 44 -4 13 -52 13 -83 1z"/> <path d="M933 1293 c-25 -10 -14 -41 17 -48 17 -4 27 -11 24 -17 -3 -5 -17 -7 -30 -4 -14 4 -24 2 -24 -4 0 -7 15 -10 37 -8 50 4 58 34 14 51 -41 15 -40 30 2 22 24 -5 28 -4 17 4 -16 11 -37 13 -57 4z"/> <path d="M1425 1280 c-27 -29 -7 -70 34 -70 16 0 33 5 37 11 3 6 -1 10 -12 9 -31 -4 -44 -1 -44 10 0 6 14 10 30 10 31 0 39 17 18 38 -18 18 -43 15 -63 -8z m45 -11 c0 -5 -7 -9 -15 -9 -15 0 -20 12 -9 23 8 8 24 -1 24 -14z"/> <path d="M1577 1279 c-20 -28 -10 -58 21 -66 32 -8 56 7 60 37 7 45 -55 67 -81 29z m51 -30 c-4 -28 -31 -32 -36 -6 -5 23 18 51 30 39 6 -6 8 -20 6 -33z"/> <path d="M1986 1284 c-19 -18 -21 -45 -4 -62 15 -15 64 -16 73 -1 4 6 -4 9 -21 7 -30 -3 -42 17 -30 49 5 13 9 14 19 4 9 -9 9 -14 -3 -21 -12 -8 -11 -10 7 -10 30 0 40 20 18 37 -24 17 -40 17 -59 -3z"/> <path d="M2085 1280 c-26 -29 -7 -70 33 -70 49 0 69 42 36 74 -21 22 -47 20 -69 -4z m53 -31 c-1 -13 -10 -24 -18 -24 -19 0 -26 45 -8 56 18 11 30 -4 26 -32z"/> <path d="M2268 1289 c-36 -21 -16 -79 27 -79 12 0 26 5 33 12 7 7 12 21 12 33 0 40 -35 56 -72 34z m50 -43 c-2 -12 -10 -21 -18 -21 -16 0 -25 28 -16 52 9 23 38 -4 34 -31z"/> <path d="M2369 1284 c-9 -11 -9 -17 0 -28 7 -8 8 -17 3 -20 -5 -3 -9 -19 -10 -36 0 -23 4 -31 23 -36 30 -7 67 13 63 34 -2 11 -15 18 -36 20 -38 4 -43 22 -6 22 17 0 28 6 31 20 3 11 12 20 19 20 21 0 29 -29 15 -51 -10 -17 -8 -19 15 -19 20 0 25 4 20 16 -3 9 -6 28 -6 42 0 26 -2 27 -60 29 -40 1 -63 -3 -71 -13z m43 -26 c-15 -15 -26 -4 -18 18 5 13 9 15 18 6 9 -9 9 -15 0 -24z m18 -68 c0 -5 -11 -10 -24 -10 -14 0 -28 5 -31 10 -4 6 7 10 24 10 17 0 31 -4 31 -10z"/> <path d="M2548 1289 c-22 -12 -23 -52 -4 -69 19 -15 58 -9 64 10 5 13 3 13 -11 1 -14 -11 -20 -11 -32 -1 -19 16 -19 34 0 50 12 10 16 9 21 -4 8 -20 24 -21 24 -2 0 8 -7 17 -16 20 -21 8 -26 7 -46 -5z"/> <path d="M2977 1282 c-21 -23 -22 -46 -3 -62 19 -15 58 -9 64 10 3 12 2 12 -8 3 -18 -17 -40 -4 -40 23 0 25 18 32 37 13 8 -8 13 -8 17 0 15 24 28 10 23 -24 -5 -31 -3 -35 17 -35 20 0 22 4 19 33 -7 54 -10 58 -37 47 -16 -6 -27 -6 -31 0 -10 16 -41 11 -58 -8z"/> <path d="M3136 1284 c-19 -18 -20 -28 -6 -55 12 -21 64 -27 76 -8 3 6 -1 10 -12 9 -31 -4 -44 -1 -44 10 0 6 11 10 24 10 32 0 40 14 20 34 -20 20 -38 20 -58 0z m44 -15 c0 -5 -7 -9 -15 -9 -15 0 -20 12 -9 23 8 8 24 -1 24 -14z"/> <path d="M3250 1291 c-21 -5 -25 -12 -26 -43 -1 -33 2 -38 22 -38 20 0 22 3 17 35 -5 29 -3 35 12 35 14 0 16 -7 13 -35 -3 -30 -1 -35 17 -35 19 0 21 5 17 33 -8 54 -19 62 -72 48z"/> <path d="M3355 1280 c-27 -30 -7 -70 35 -70 22 0 30 5 30 17 0 13 -3 14 -11 6 -17 -17 -39 -4 -39 23 0 24 23 33 35 14 4 -6 11 -8 16 -4 14 8 -9 34 -31 34 -9 0 -25 -9 -35 -20z"/> <path d="M3456 1284 c-19 -18 -21 -45 -4 -62 14 -14 68 -16 68 -2 0 5 -10 9 -22 7 -24 -2 -35 21 -24 50 5 13 9 14 19 4 9 -9 9 -14 -3 -21 -12 -8 -11 -10 7 -10 29 0 37 15 17 34 -20 20 -38 20 -58 0z"/> <path d="M3549 1284 c-11 -14 -10 -18 6 -30 10 -8 25 -14 32 -14 7 0 13 -4 13 -10 0 -14 -33 -13 -48 2 -9 9 -12 8 -12 -6 0 -14 7 -17 37 -14 51 4 57 33 12 52 -18 8 -27 16 -20 20 6 4 20 2 31 -4 16 -9 20 -8 20 5 0 21 -53 20 -71 -1z"/> <path d="M1566 1091 c5 -25 4 -29 -12 -25 -11 3 -28 -2 -39 -10 -16 -12 -18 -19 -10 -43 9 -25 16 -28 59 -31 42 -3 48 -1 42 13 -3 9 -6 41 -6 71 0 47 -3 54 -20 54 -16 0 -19 -5 -14 -29z m2 -70 c-3 -30 -31 -36 -36 -8 -6 28 5 47 23 41 10 -4 15 -16 13 -33z"/> <path d="M1800 1105 c-6 -8 -13 -39 -14 -70 -2 -50 0 -55 19 -55 20 0 21 4 18 67 -2 51 0 64 9 55 16 -16 28 -15 28 3 0 20 -44 20 -60 0z"/> <path d="M2161 1103 c16 -18 21 -90 8 -99 -19 -11 -8 -24 21 -24 17 0 30 5 30 10 0 6 -4 10 -10 10 -13 0 -13 37 1 45 14 9 40 -26 35 -47 -3 -15 3 -18 30 -18 19 0 34 2 34 4 0 2 -16 21 -35 42 -33 35 -34 39 -18 56 9 10 22 18 30 18 7 0 13 5 13 10 0 6 -14 10 -31 10 -19 0 -28 -4 -24 -11 7 -11 -22 -49 -37 -49 -12 0 -10 34 4 48 9 9 4 12 -26 12 -35 0 -37 -2 -25 -17z"/> <path d="M2370 1110 c0 -5 5 -10 10 -10 6 0 10 -22 10 -50 0 -27 -4 -50 -10 -50 -5 0 -10 -4 -10 -10 0 -5 13 -10 28 -10 29 0 29 0 24 55 -3 35 0 60 8 70 11 13 7 15 -24 15 -20 0 -36 -4 -36 -10z"/> <path d="M2561 1102 c-12 -22 -1 -39 42 -66 15 -9 25 -21 22 -26 -10 -15 -45 -12 -51 5 -9 21 -24 19 -24 -5 0 -14 9 -21 35 -26 68 -12 90 42 30 77 -19 12 -35 25 -35 29 0 19 22 21 41 4 20 -18 35 -14 26 8 -8 22 -74 22 -86 0z"/> <path d="M2840 1111 c0 -6 5 -13 10 -16 6 -3 10 -30 10 -58 0 -51 0 -52 32 -54 38 -3 58 12 58 42 0 30 -24 48 -51 40 -20 -7 -21 -5 -16 24 6 28 4 31 -18 31 -14 0 -25 -4 -25 -9z m80 -85 c0 -28 -8 -36 -26 -29 -17 6 -19 50 -1 56 18 7 27 -2 27 -27z"/> <path d="M1871 1083 c-1 -7 -9 -13 -18 -13 -13 0 -14 -3 -5 -12 7 -7 12 -27 12 -46 0 -29 3 -33 22 -30 12 2 23 9 26 16 2 7 -2 10 -12 6 -12 -5 -16 0 -16 20 0 16 6 26 15 26 8 0 15 5 15 10 0 6 -6 10 -14 10 -8 0 -17 6 -19 13 -4 10 -6 10 -6 0z"/> <path d="M2787 1075 c-12 -8 -14 -15 -8 -20 6 -3 11 -22 11 -41 0 -27 4 -34 19 -34 11 0 23 5 26 10 3 6 -1 10 -9 10 -10 0 -16 9 -16 25 0 16 6 25 15 25 8 0 15 5 15 10 0 6 -6 10 -14 10 -8 0 -16 4 -18 9 -1 5 -11 4 -21 -4z"/> <path d="M993 1061 c-4 -3 -9 -23 -9 -43 -1 -33 2 -38 22 -38 20 0 22 3 17 35 -5 29 -3 35 12 35 15 0 17 -6 12 -35 -5 -32 -4 -35 18 -35 22 0 24 3 18 33 -3 17 -10 37 -15 44 -10 12 -60 15 -75 4z"/> <path d="M1110 1056 c-10 -13 -10 -16 3 -16 8 0 17 6 20 13 3 9 7 9 17 1 9 -9 6 -15 -17 -26 -44 -21 -36 -43 15 -44 24 0 45 3 48 8 3 4 1 8 -5 8 -5 0 -11 15 -13 33 -2 26 -8 33 -29 35 -14 2 -31 -4 -39 -12z m50 -46 c0 -5 -7 -10 -15 -10 -8 0 -15 5 -15 10 0 6 7 10 15 10 8 0 15 -4 15 -10z"/> <path d="M1212 1058 c-11 -4 -12 -7 -3 -7 10 -1 12 -10 8 -36 -5 -32 -4 -35 18 -35 22 0 23 3 18 35 -5 28 -2 35 11 35 22 0 30 -24 16 -49 -9 -19 -8 -21 14 -21 21 0 24 4 22 32 -1 24 4 33 18 36 17 4 18 0 13 -32 -5 -33 -4 -36 19 -36 25 0 32 14 13 25 -5 4 -8 12 -6 18 2 7 0 20 -4 29 -7 13 -22 16 -74 15 -36 -1 -73 -5 -83 -9z"/> <path d="M1412 1058 c-7 -7 -12 -21 -12 -33 0 -12 5 -26 12 -33 14 -14 68 -16 68 -2 0 6 -11 10 -25 10 -20 0 -25 5 -25 24 0 26 15 43 24 27 4 -5 0 -12 -6 -14 -7 -3 0 -6 15 -6 25 -1 27 1 17 19 -12 22 -49 27 -68 8z"/> <path d="M1680 1056 c-10 -13 -10 -16 3 -16 8 0 17 6 20 13 3 9 7 9 17 1 9 -9 6 -15 -17 -26 -44 -21 -36 -43 15 -44 23 0 45 3 48 8 3 4 1 8 -5 8 -5 0 -11 15 -13 33 -2 26 -8 33 -29 35 -14 2 -31 -4 -39 -12z m50 -46 c0 -5 -7 -10 -15 -10 -8 0 -15 5 -15 10 0 6 7 10 15 10 8 0 15 -4 15 -10z"/> <path d="M1938 1059 c-21 -12 -24 -49 -6 -67 15 -15 54 -16 63 -2 4 6 -5 10 -19 10 -16 0 -26 6 -26 15 0 10 10 15 30 15 28 0 30 2 20 20 -12 22 -35 25 -62 9z"/> <path d="M2022 1058 c-11 -4 -12 -7 -3 -7 10 -1 12 -10 8 -36 -6 -34 -5 -35 26 -35 24 0 28 3 19 12 -7 7 -12 23 -12 36 0 19 4 22 20 17 14 -4 20 -2 20 9 0 16 -42 18 -78 4z"/> <path d="M2680 1060 c-8 -5 -11 -12 -7 -16 3 -4 13 -1 22 6 18 15 22 13 27 -20 2 -18 -2 -26 -17 -28 -17 -4 -18 -2 -6 12 15 17 5 21 -18 7 -26 -17 -5 -38 38 -38 23 0 44 4 47 8 3 5 0 9 -5 9 -6 0 -11 13 -11 29 0 37 -35 53 -70 31z"/> <path d="M2980 1060 c-8 -5 -11 -12 -7 -16 4 -4 13 -2 19 4 16 16 28 15 28 -2 0 -8 -12 -17 -26 -20 -17 -5 -24 -12 -22 -24 2 -12 14 -17 46 -19 23 0 44 3 48 8 3 5 0 9 -5 9 -6 0 -11 13 -11 29 0 37 -35 53 -70 31z"/> <path d="M3072 1063 c2 -5 12 -25 23 -46 19 -37 19 -40 2 -52 -20 -14 -23 -39 -4 -33 9 3 76 121 77 136 0 1 -7 2 -15 2 -9 0 -15 -10 -15 -26 0 -31 -23 -28 -28 4 -2 14 -11 22 -24 22 -11 0 -18 -3 -16 -7z"/> <path d="M3186 1051 c-34 -38 13 -87 61 -65 14 6 11 9 -14 12 -43 4 -45 32 -3 32 32 0 37 9 18 28 -18 18 -42 15 -62 -7z m49 -1 c3 -5 -3 -10 -15 -10 -12 0 -18 5 -15 10 3 6 10 10 15 10 5 0 12 -4 15 -10z"/> <path d="M3270 1065 c0 -13 41 -85 48 -85 7 0 25 30 50 83 2 4 -3 7 -11 7 -8 0 -17 -14 -21 -32 -5 -26 -9 -30 -16 -18 -5 8 -10 23 -10 33 0 10 -8 17 -20 17 -11 0 -20 -2 -20 -5z"/> <path d="M2322 998 c6 -18 28 -21 28 -4 0 9 -7 16 -16 16 -9 0 -14 -5 -12 -12z"/> <path d="M2452 998 c6 -18 28 -21 28 -4 0 9 -7 16 -16 16 -9 0 -14 -5 -12 -12z"/> </g> </svg> 